SplineFontDB: 3.0
FontName: Monda-Bold
FullName: Monda Bold
FamilyName: Monda
Weight: Bold
Copyright: Digitized data Copyright (c) 2012-2014, vernon adams.
Version: 2.0
ItalicAngle: 0
UnderlinePosition: 0
UnderlineWidth: 0
Ascent: 800
Descent: 200
UFOAscent: 991
UFODescent: -329
LayerCount: 2
Layer: 0 0 "Back"  1
Layer: 1 0 "Fore"  0
FSType: 0
OS2Version: 0
OS2_WeightWidthSlopeOnly: 0
OS2_UseTypoMetrics: 1
CreationTime: 1397691060
ModificationTime: 1397691300
PfmFamily: 17
TTFWeight: 700
TTFWidth: 5
LineGap: 0
VLineGap: 0
OS2TypoAscent: 0
OS2TypoAOffset: 1
OS2TypoDescent: 0
OS2TypoDOffset: 1
OS2TypoLinegap: 0
OS2WinAscent: 0
OS2WinAOffset: 1
OS2WinDescent: 0
OS2WinDOffset: 1
HheadAscent: 0
HheadAOffset: 1
HheadDescent: 0
HheadDOffset: 1
OS2Vendor: 'NeWT'
Lookup: 258 0 0 "'kern' Horizontal Kerning in Latin lookup 0"  {"'kern' Horizontal Kerning in Latin lookup 0 subtable"  } ['kern' ('latn' <'dflt' > ) ]
MarkAttachClasses: 1
DEI: 91125
LangName: 1033 "" "" "" "" "" "Version 2.0" "" "Monda is a trademark of Vernon Adams and may be registered in certain jurisdictions." "newtypography" "Vernon Adams" "" "newtypography.co.uk" "newtypography.co.uk" "Digitized data Copyright (c) 2012-2014, vernon adams.+AAoACgAA-This Font Software is licensed under the SIL Open Font License, Version 1.1.+AAoA-This license is copied below, and is also available with a FAQ at:+AAoA-http://scripts.sil.org/OFL+AAoA" "http://scripts.sil.org/OFL" "" "" "" "Monda-Bold" 
PickledData: "(dp1
S'public.glyphOrder'
p2
(S'A'
S'Aacute'
p3
S'Abreve'
p4
S'Acaron'
p5
S'Acircumflex'
p6
S'Adblgrave'
p7
S'Adieresis'
p8
S'Adotaccent'
p9
S'Agrave'
p10
S'Ainvertedbreve'
p11
S'Amacron'
p12
S'Aogonek'
p13
S'Aring'
p14
S'Aringacute'
p15
S'Atilde'
p16
S'AE'
p17
S'AEacute'
p18
S'AEmacron'
p19
S'B'
S'Bdotaccent'
p20
S'C'
S'Cacute'
p21
S'Ccaron'
p22
S'Ccedilla'
p23
S'Ccircumflex'
p24
S'Cdotaccent'
p25
S'D'
S'DZ'
p26
S'DZcaron'
p27
S'Eth'
p28
S'Dcaron'
p29
S'Dcroat'
p30
S'Ddotaccent'
p31
S'Dz'
p32
S'Dzcaron'
p33
S'E'

StartChar: A
Encoding: 65 65 0
Width: 751
VWidth: 0
Flags: HW
PickledData: "(dp1
S'org.robofab.postScriptHintData'
p2
(dp3
s."
AnchorPoint: "ogonek" 629 0 basechar 0
LayerCount: 2
Fore
SplineSet
262 234 m 1
 378 608 l 1
 490 234 l 1
 262 234 l 1
41 0 m 1
 191 0 l 1
 233 137 l 1
 518 137 l 1
 559 0 l 1
 711 0 l 1
 471 721 l 1
 278 721 l 1
 41 0 l 1
EndSplineSet
EndChar

StartChar: AE
Encoding: 198 198 1
Width: 895
VWidth: 0
Flags: HW
PickledData: "(dp1
S'org.robofab.postScriptHintData'
p2
(dp3
s."
LayerCount: 2
Fore
SplineSet
257 233 m 1
 370 610 l 1
 436 610 l 1
 436 233 l 1
 257 233 l 1
41 0 m 1
 192 0 l 1
 230 137 l 1
 436 137 l 1
 436 0 l 1
 835 0 l 1
 835 111 l 1
 573 111 l 1
 573 315 l 1
 796 315 l 1
 796 419 l 1
 573 419 l 1
 573 610 l 1
 830 610 l 1
 830 721 l 1
 263 721 l 1
 41 0 l 1
EndSplineSet
EndChar

StartChar: B
Encoding: 66 66 18
Width: 728
VWidth: 0
Flags: HW
PickledData: "(dp1
S'org.robofab.postScriptHintData'
p2
(dp3
s."
LayerCount: 2
Fore
SplineSet
249 431 m 1
 249 622 l 1
 372 622 l 2
 470 622 488 606 488 530 c 0
 488 465 482 431 398 431 c 2
 249 431 l 1
249 102 m 1
 249 343 l 1
 404 343 l 2
 512 343 522 294 522 222 c 0
 522 122 502 102 389 102 c 2
 249 102 l 1
104 0 m 1
 416 0 l 2
 591 0 667 65 667 209 c 2
 667 219 l 2
 667 313 644 379 544 393 c 1
 619 412 636 458 636 531 c 0
 636 660 583 721 381 721 c 2
 104 721 l 1
 104 0 l 1
EndSplineSet
EndChar

StartChar: C
Encoding: 67 67 20
Width: 736
VWidth: 0
Flags: HW
PickledData: "(dp1
S'org.robofab.postScriptHintData'
p2
(dp3
s."
AnchorPoint: "bot" 374 0 basechar 0
LayerCount: 2
Fore
SplineSet
385 -13 m 0
 635 -13 669 92 669 234 c 2
 669 248 l 1
 527 248 l 1
 527 225 l 2
 527 122 495 101 385 101 c 0
 277 101 227 123 227 222 c 2
 227 494 l 2
 227 593 278 619 385 619 c 0
 495 619 527 592 527 491 c 2
 527 455 l 1
 669 471 l 1
 669 480 l 2
 669 626 631 733 385 733 c 0
 127 733 82 623 82 477 c 2
 82 236 l 2
 82 94 128 -13 385 -13 c 0
EndSplineSet
EndChar

StartChar: D
Encoding: 68 68 27
Width: 763
VWidth: 0
Flags: HW
PickledData: "(dp1
S'org.robofab.postScriptHintData'
p2
(dp3
s."
LayerCount: 2
Fore
SplineSet
104 0 m 1
 417 0 l 2
 620 0 682 104 682 248 c 2
 682 469 l 2
 682 610 625 721 416 721 c 2
 104 721 l 1
 104 0 l 1
249 113 m 1
 249 608 l 1
 404 608 l 2
 505 608 537 566 537 488 c 2
 537 229 l 2
 537 149 506 113 404 113 c 2
 249 113 l 1
EndSplineSet
EndChar

StartChar: Dcroat
Encoding: 272 272 31
Width: 763
VWidth: 0
Flags: HW
PickledData: "(dp1
S'org.robofab.postScriptHintData'
p2
(dp3
s."
LayerCount: 2
Fore
SplineSet
249 417 m 1
 249 608 l 1
 404 608 l 2
 505 608 537 566 537 488 c 2
 537 229 l 2
 537 149 506 113 404 113 c 2
 249 113 l 1
 249 345 l 1
 359 345 l 1
 359 417 l 1
 249 417 l 1
104 0 m 1
 417 0 l 2
 620 0 682 104 682 248 c 2
 682 469 l 2
 682 610 625 721 416 721 c 2
 104 721 l 1
 104 417 l 1
 15 417 l 1
 15 345 l 1
 104 345 l 1
 104 0 l 1
EndSplineSet
EndChar

StartChar: uni0394
Encoding: 916 916 33
Width: 692
VWidth: 0
Flags: HW
PickledData: "(dp1
S'org.robofab.postScriptHintData'
p2
(dp3
s."
LayerCount: 2
Fore
SplineSet
185 97 m 1
 336 557 l 1
 471 97 l 1
 185 97 l 1
53 0 m 1
 639 0 l 1
 406 721 l 1
 300 721 l 1
 53 0 l 1
EndSplineSet
EndChar

StartChar: E
Encoding: 69 69 36
Width: 642
VWidth: 0
Flags: HW
PickledData: "(dp1
S'org.robofab.postScriptHintData'
p2
(dp3
s."
AnchorPoint: "bot" 355 0 basechar 0
AnchorPoint: "ogonek" 436 0 basechar 0
LayerCount: 2
Fore
SplineSet
104 0 m 1
 581 0 l 1
 581 109 l 1
 248 109 l 1
 248 315 l 1
 539 315 l 1
 539 420 l 1
 248 420 l 1
 248 611 l 1
 576 611 l 1
 576 721 l 1
 104 721 l 1
 104 0 l 1
EndSplineSet
EndChar

StartChar: Eng
Encoding: 330 330 47
Width: 800
VWidth: 0
Flags: HW
PickledData: "(dp1
S'org.robofab.postScriptHintData'
p2
(dp3
s."
LayerCount: 2
Fore
SplineSet
440 -187 m 1
 656 -187 708 -107 708 79 c 2
 708 721 l 1
 578 721 l 1
 578 273 l 1
 203 721 l 1
 93 721 l 1
 93 0 l 1
 224 0 l 1
 224 486 l 1
 575 75 l 1
 575 57 l 2
 575 -78 540 -84 426 -94 c 1
 440 -187 l 1
EndSplineSet
EndChar

StartChar: Euro
Encoding: 8364 8364 51
Width: 727
VWidth: 0
Flags: HW
PickledData: "(dp1
S'org.robofab.postScriptHintData'
p2
(dp3
s."
LayerCount: 2
Fore
SplineSet
385 262 m 1
 385 327 l 1
 22 327 l 1
 22 262 l 1
 385 262 l 1
385 409 m 1
 385 475 l 1
 22 475 l 1
 22 409 l 1
 385 409 l 1
EndSplineSet
Refer: 20 67 N 1 0 0 1 0 0 2
EndChar

StartChar: F
Encoding: 70 70 52
Width: 583
VWidth: 0
Flags: HW
PickledData: "(dp1
S'org.robofab.postScriptHintData'
p2
(dp3
s."
LayerCount: 2
Fore
SplineSet
104 0 m 1
 249 0 l 1
 249 310 l 1
 520 310 l 1
 520 414 l 1
 249 414 l 1
 249 610 l 1
 540 610 l 1
 540 721 l 1
 104 721 l 1
 104 0 l 1
EndSplineSet
EndChar

StartChar: G
Encoding: 71 71 54
Width: 792
VWidth: 0
Flags: HW
PickledData: "(dp1
S'org.robofab.postScriptHintData'
p2
(dp3
s."
AnchorPoint: "bot" 375 0 basechar 0
LayerCount: 2
Fore
SplineSet
401 -13 m 0
 557 -13 590 60 597 83 c 1
 620 0 l 1
 697 0 l 1
 697 370 l 1
 420 370 l 1
 420 274 l 1
 566 274 l 1
 566 222 l 2
 566 123 511 101 401 101 c 0
 293 101 228 123 228 222 c 2
 228 494 l 2
 228 593 294 619 401 619 c 0
 509 619 554 596 554 499 c 2
 554 470 l 1
 696 480 l 1
 696 492 l 2
 696 630 651 733 401 733 c 0
 143 733 82 623 82 477 c 2
 82 236 l 2
 82 94 144 -13 401 -13 c 0
EndSplineSet
EndChar

StartChar: H
Encoding: 72 72 61
Width: 814
VWidth: 0
Flags: HW
PickledData: "(dp1
S'org.robofab.postScriptHintData'
p2
(dp3
s."
LayerCount: 2
Fore
SplineSet
104 0 m 1
 249 0 l 1
 249 300 l 1
 565 300 l 1
 565 0 l 1
 711 0 l 1
 711 721 l 1
 565 721 l 1
 565 414 l 1
 249 414 l 1
 249 721 l 1
 104 721 l 1
 104 0 l 1
EndSplineSet
EndChar

StartChar: Hbar
Encoding: 294 294 62
Width: 792
VWidth: 0
Flags: HW
PickledData: "(dp1
S'org.robofab.postScriptHintData'
p2
(dp3
s."
LayerCount: 2
Fore
SplineSet
249 553 m 1
 565 553 l 1
 565 414 l 1
 249 414 l 1
 249 553 l 1
104 0 m 1
 249 0 l 1
 249 300 l 1
 565 300 l 1
 565 0 l 1
 711 0 l 1
 711 553 l 1
 752 553 l 1
 752 604 l 1
 711 604 l 1
 711 721 l 1
 565 721 l 1
 565 604 l 1
 249 604 l 1
 249 721 l 1
 104 721 l 1
 104 604 l 1
 41 604 l 1
 41 553 l 1
 104 553 l 1
 104 0 l 1
EndSplineSet
EndChar

StartChar: I
Encoding: 73 73 64
Width: 560
VWidth: 0
Flags: HW
PickledData: "(dp1
S'org.robofab.postScriptHintData'
p2
(dp3
s."
AnchorPoint: "ogonek" 285 0 basechar 0
LayerCount: 2
Fore
SplineSet
77 0 m 1
 483 0 l 1
 483 108 l 1
 353 108 l 1
 353 613 l 1
 483 613 l 1
 483 721 l 1
 77 721 l 1
 77 613 l 1
 208 613 l 1
 208 108 l 1
 77 108 l 1
 77 0 l 1
EndSplineSet
EndChar

StartChar: J
Encoding: 74 74 78
Width: 596
VWidth: 0
Flags: HW
PickledData: "(dp1
S'org.robofab.postScriptHintData'
p2
(dp3
s."
LayerCount: 2
Fore
SplineSet
246 -12 m 0
 408 -12 506 67 506 206 c 2
 506 721 l 1
 113 721 l 1
 113 610 l 1
 361 610 l 1
 361 215 l 2
 361 153 328 102 237 102 c 0
 186 102 115 118 68 140 c 1
 34 33 l 1
 97 3 176 -12 246 -12 c 0
EndSplineSet
EndChar

StartChar: K
Encoding: 75 75 80
Width: 717
VWidth: 0
Flags: HW
PickledData: "(dp1
S'org.robofab.postScriptHintData'
p2
(dp3
s."
AnchorPoint: "bot" 382 0 basechar 0
LayerCount: 2
Fore
SplineSet
104 0 m 1
 249 0 l 1
 249 264 l 1
 316 332 l 1
 543 0 l 1
 707 0 l 1
 437 393 l 1
 689 721 l 1
 529 721 l 1
 249 371 l 1
 249 721 l 1
 104 721 l 1
 104 0 l 1
EndSplineSet
EndChar

StartChar: L
Encoding: 76 76 83
Width: 583
VWidth: 0
Flags: HW
PickledData: "(dp1
S'org.robofab.postScriptHintData'
p2
(dp3
s."
AnchorPoint: "bot" 321 0 basechar 0
LayerCount: 2
Fore
SplineSet
104 0 m 1
 550 0 l 1
 550 113 l 1
 249 113 l 1
 249 721 l 1
 104 721 l 1
 104 0 l 1
EndSplineSet
EndChar

StartChar: Lslash
Encoding: 321 321 90
Width: 572
VWidth: 0
Flags: HW
PickledData: "(dp1
S'org.robofab.postScriptHintData'
p2
(dp3
s."
LayerCount: 2
Fore
SplineSet
12 273 m 1
 387 425 l 1
 387 534 l 1
 12 382 l 1
 12 273 l 1
EndSplineSet
Refer: 83 76 N 1 0 0 1 0 0 2
EndChar

StartChar: M
Encoding: 77 77 91
Width: 936
VWidth: 0
Flags: HW
PickledData: "(dp1
S'org.robofab.postScriptHintData'
p2
(dp3
s."
LayerCount: 2
Fore
SplineSet
104 0 m 1
 239 0 l 1
 239 531 l 1
 420 209 l 1
 517 209 l 1
 697 533 l 1
 697 0 l 1
 833 0 l 1
 833 721 l 1
 670 721 l 1
 468 372 l 1
 263 721 l 1
 104 721 l 1
 104 0 l 1
EndSplineSet
EndChar

StartChar: N
Encoding: 78 78 93
Width: 819
VWidth: 0
Flags: HW
PickledData: "(dp1
S'org.robofab.postScriptHintData'
p2
(dp3
s."
AnchorPoint: "bot" 440 0 basechar 0
LayerCount: 2
Fore
SplineSet
104 0 m 1
 234 0 l 1
 234 486 l 1
 607 0 l 1
 716 0 l 1
 716 721 l 1
 587 721 l 1
 587 227 l 1
 212 721 l 1
 104 721 l 1
 104 0 l 1
EndSplineSet
EndChar

StartChar: O
Encoding: 79 79 100
Width: 791
VWidth: 0
Flags: HW
PickledData: "(dp1
S'org.robofab.postScriptHintData'
p2
(dp3
s."
AnchorPoint: "ogonek" 431 0 basechar 0
LayerCount: 2
Fore
SplineSet
401 -13 m 0
 649 -13 710 110 710 252 c 2
 710 463 l 2
 710 609 650 733 401 733 c 0
 141 733 82 616 82 470 c 2
 82 245 l 2
 82 102 142 -13 401 -13 c 0
401 101 m 0
 293 101 228 130 228 229 c 2
 228 490 l 2
 228 589 294 619 401 619 c 0
 509 619 564 587 564 490 c 2
 564 229 l 2
 564 130 510 101 401 101 c 0
EndSplineSet
EndChar

StartChar: OE
Encoding: 338 338 101
Width: 797
VWidth: 0
Flags: HW
PickledData: "(dp1
S'org.robofab.postScriptHintData'
p2
(dp3
s."
LayerCount: 2
Fore
SplineSet
349 93 m 2
 242 93 210 148 210 217 c 2
 210 499 l 2
 210 569 242 625 348 625 c 2
 433 625 l 1
 433 93 l 1
 349 93 l 2
350 0 m 2
 736 0 l 1
 736 93 l 1
 564 93 l 1
 564 325 l 1
 694 325 l 1
 694 419 l 1
 564 419 l 1
 564 628 l 1
 735 628 l 1
 735 721 l 1
 350 721 l 2
 129 721 78 609 78 468 c 2
 78 247 l 2
 78 103 130 0 350 0 c 2
EndSplineSet
EndChar

StartChar: uni03A9
Encoding: 937 937 112
Width: 797
VWidth: 0
Flags: HW
PickledData: "(dp1
S'org.robofab.postScriptHintData'
p2
(dp3
s."
LayerCount: 2
Fore
SplineSet
399 727 m 0
 211 727 71 692 71 364 c 0
 71 223 137 145 206 101 c 1
 82 101 l 1
 82 0 l 1
 359 0 l 1
 359 94 l 1
 250 149 222 218 222 380 c 0
 222 601 285 621 399 621 c 0
 518 621 576 601 576 380 c 0
 576 218 548 149 439 94 c 1
 439 0 l 1
 716 0 l 1
 716 101 l 1
 592 101 l 1
 661 145 727 223 727 364 c 0
 727 692 591 727 399 727 c 0
EndSplineSet
EndChar

StartChar: Oslash
Encoding: 216 216 114
Width: 784
VWidth: 0
Flags: HW
PickledData: "(dp1
S'org.robofab.postScriptHintData'
p2
(dp3
s."
LayerCount: 2
Fore
SplineSet
474 612 m 1
 286 121 l 1
 248 140 228 173 228 229 c 2
 228 490 l 2
 228 589 294 619 401 619 c 0
 429 619 453 617 474 612 c 1
514 597 m 1
 547 577 564 543 564 490 c 2
 564 229 l 2
 564 130 510 101 401 101 c 0
 374 101 349 103 327 107 c 1
 514 597 l 1
401 -13 m 0
 649 -13 710 110 710 252 c 2
 710 463 l 2
 710 571 677 668 558 710 c 1
 599 818 l 1
 557 829 l 1
 516 722 l 1
 483 729 445 733 401 733 c 0
 141 733 82 616 82 470 c 2
 82 245 l 2
 82 137 116 46 243 7 c 1
 204 -95 l 1
 246 -106 l 1
 285 -3 l 1
 318 -9 357 -13 401 -13 c 0
EndSplineSet
EndChar

StartChar: P
Encoding: 80 80 117
Width: 687
VWidth: 0
Flags: HW
PickledData: "(dp1
S'org.robofab.postScriptHintData'
p2
(dp3
s."
LayerCount: 2
Fore
SplineSet
249 354 m 1
 249 618 l 1
 400 618 l 2
 468 618 485 559 485 483 c 0
 485 397 468 354 395 354 c 2
 249 354 l 1
104 0 m 1
 249 0 l 1
 249 249 l 1
 372 249 l 2
 560 249 621 324 621 491 c 0
 621 653 545 721 386 721 c 2
 104 721 l 1
 104 0 l 1
EndSplineSet
EndChar

StartChar: Q
Encoding: 81 81 119
Width: 791
VWidth: 0
Flags: HW
PickledData: "(dp1
S'org.robofab.postScriptHintData'
p2
(dp3
s."
LayerCount: 2
Fore
SplineSet
401 101 m 0
 293 101 228 130 228 229 c 2
 228 490 l 2
 228 589 294 619 401 619 c 0
 509 619 564 587 564 490 c 2
 564 229 l 2
 564 130 510 101 401 101 c 0
497 -261 m 1
 589 -208 l 1
 470 -9 l 1
 661 12 710 125 710 252 c 2
 710 463 l 2
 710 609 650 733 401 733 c 0
 141 733 82 616 82 470 c 2
 82 245 l 2
 82 115 132 7 340 -10 c 1
 497 -261 l 1
EndSplineSet
EndChar

StartChar: R
Encoding: 82 82 120
Width: 744
VWidth: 0
Flags: HW
PickledData: "(dp1
S'org.robofab.postScriptHintData'
p2
(dp3
s."
AnchorPoint: "bot" 392 0 basechar 0
LayerCount: 2
Fore
SplineSet
249 388 m 1
 249 618 l 1
 433 618 l 2
 505 618 517 558 517 499 c 0
 517 437 501 388 427 388 c 2
 249 388 l 1
104 0 m 1
 249 0 l 1
 249 285 l 1
 412 285 l 1
 538 0 l 1
 688 0 l 1
 549 306 l 1
 637 342 655 416 655 505 c 0
 655 635 606 721 415 721 c 2
 104 721 l 1
 104 0 l 1
EndSplineSet
EndChar

StartChar: S
Encoding: 83 83 126
Width: 625
VWidth: 0
Flags: HW
PickledData: "(dp1
S'org.robofab.postScriptHintData'
p2
(dp3
s."
AnchorPoint: "bot" 343 0 basechar 0
LayerCount: 2
Fore
SplineSet
438 201 m 0
 438 140 420 101 333 101 c 0
 244 101 163 130 108 159 c 1
 59 53 l 1
 131 12 238 -13 336 -13 c 0
 501 -13 571 84 571 206 c 0
 571 319 522 380 425 409 c 2
 302 445 l 2
 230 466 209 490 209 539 c 0
 209 599 251 619 330 619 c 0
 400 619 463 600 517 575 c 1
 558 677 l 1
 492 716 412 733 317 733 c 0
 175 733 66 668 66 534 c 0
 66 442 98 368 216 333 c 2
 339 296 l 2
 425 271 438 241 438 201 c 0
EndSplineSet
EndChar

StartChar: Sigma
Encoding: 931 931 134
Width: 583
VWidth: 0
Flags: HW
PickledData: "(dp1
S'org.robofab.postScriptHintData'
p2
(dp3
s."
LayerCount: 2
Fore
SplineSet
532 0 m 1
 532 110 l 1
 218 110 l 1
 426 358 l 1
 426 396 l 1
 219 611 l 1
 532 611 l 1
 532 721 l 1
 45 721 l 1
 45 630 l 1
 280 372 l 1
 45 93 l 1
 45 0 l 1
 532 0 l 1
EndSplineSet
EndChar

StartChar: T
Encoding: 84 84 135
Width: 583
VWidth: 0
Flags: HW
PickledData: "(dp1
S'org.robofab.postScriptHintData'
p2
(dp3
s."
AnchorPoint: "bot" 281 0 basechar 0
LayerCount: 2
Fore
SplineSet
219 0 m 1
 364 0 l 1
 364 610 l 1
 564 610 l 1
 564 721 l 1
 19 721 l 1
 19 610 l 1
 219 610 l 1
 219 0 l 1
EndSplineSet
EndChar

StartChar: Tbar
Encoding: 358 358 136
Width: 583
VWidth: 0
Flags: HW
PickledData: "(dp1
S'org.robofab.postScriptHintData'
p2
(dp3
s."
LayerCount: 2
Fore
SplineSet
219 0 m 1
 364 0 l 1
 364 334 l 1
 440 334 l 1
 440 411 l 1
 364 411 l 1
 364 610 l 1
 564 610 l 1
 564 721 l 1
 19 721 l 1
 19 610 l 1
 219 610 l 1
 219 411 l 1
 145 411 l 1
 145 334 l 1
 219 334 l 1
 219 0 l 1
EndSplineSet
EndChar

StartChar: Thorn
Encoding: 222 222 140
Width: 665
VWidth: 0
Flags: HW
PickledData: "(dp1
S'org.robofab.postScriptHintData'
p2
(dp3
s."
LayerCount: 2
Fore
SplineSet
250 277 m 1
 250 504 l 1
 407 504 l 2
 475 504 490 464 490 389 c 0
 490 302 476 277 403 277 c 2
 250 277 l 1
105 0 m 1
 250 0 l 1
 250 174 l 1
 380 174 l 2
 568 174 621 229 621 396 c 0
 621 558 554 605 394 605 c 2
 250 605 l 1
 250 721 l 1
 105 721 l 1
 105 0 l 1
EndSplineSet
EndChar

StartChar: U
Encoding: 85 85 141
Width: 784
VWidth: 0
Flags: HW
PickledData: "(dp1
S'org.robofab.postScriptHintData'
p2
(dp3
s."
AnchorPoint: "ogonek" 434 0 basechar 0
LayerCount: 2
Fore
SplineSet
396 -13 m 0
 639 -13 690 97 690 234 c 2
 690 721 l 1
 545 721 l 1
 545 222 l 2
 545 128 498 101 396 101 c 0
 296 101 239 127 239 222 c 2
 239 721 l 1
 94 721 l 1
 94 229 l 2
 94 91 149 -13 396 -13 c 0
EndSplineSet
EndChar

StartChar: V
Encoding: 86 86 155
Width: 724
VWidth: 0
Flags: HW
PickledData: "(dp1
S'org.robofab.postScriptHintData'
p2
(dp3
s."
LayerCount: 2
Fore
SplineSet
275 0 m 1
 451 0 l 1
 705 721 l 1
 551 721 l 1
 365 140 l 1
 173 721 l 1
 20 721 l 1
 275 0 l 1
EndSplineSet
EndChar

StartChar: W
Encoding: 87 87 156
Width: 983
VWidth: 0
Flags: HW
PickledData: "(dp1
S'org.robofab.postScriptHintData'
p2
(dp3
s."
LayerCount: 2
Fore
SplineSet
218 0 m 1
 348 0 l 1
 490 514 l 1
 644 0 l 1
 766 0 l 1
 949 721 l 1
 812 721 l 1
 700 228 l 1
 547 721 l 1
 426 721 l 1
 293 222 l 1
 171 721 l 1
 34 721 l 1
 218 0 l 1
EndSplineSet
EndChar

StartChar: X
Encoding: 88 88 161
Width: 660
VWidth: 0
Flags: HW
PickledData: "(dp1
S'org.robofab.postScriptHintData'
p2
(dp3
s."
LayerCount: 2
Fore
SplineSet
19 0 m 1
 170 0 l 1
 327 245 l 1
 482 0 l 1
 642 0 l 1
 405 366 l 1
 633 721 l 1
 473 721 l 1
 327 487 l 1
 175 721 l 1
 24 721 l 1
 250 365 l 1
 19 0 l 1
EndSplineSet
EndChar

StartChar: Y
Encoding: 89 89 162
Width: 654
VWidth: 0
Flags: HW
PickledData: "(dp1
S'org.robofab.postScriptHintData'
p2
(dp3
s."
LayerCount: 2
Fore
SplineSet
257 0 m 1
 402 0 l 1
 402 277 l 1
 646 721 l 1
 499 721 l 1
 331 419 l 1
 162 721 l 1
 9 721 l 1
 257 277 l 1
 257 0 l 1
EndSplineSet
EndChar

StartChar: Z
Encoding: 90 90 169
Width: 596
VWidth: 0
Flags: HW
PickledData: "(dp1
S'org.robofab.postScriptHintData'
p2
(dp3
s."
LayerCount: 2
Fore
SplineSet
60 0 m 1
 557 0 l 1
 557 103 l 1
 229 103 l 1
 551 633 l 1
 551 721 l 1
 72 721 l 1
 72 614 l 1
 383 614 l 1
 60 86 l 1
 60 0 l 1
EndSplineSet
EndChar

StartChar: a
Encoding: 97 97 173
Width: 573
VWidth: 0
Flags: HW
PickledData: "(dp1
S'org.robofab.postScriptHintData'
p2
(dp3
sS'com.typemytype.robofont.layerData'
p4
(dp5
s."
AnchorPoint: "ogonek" 492 0 basechar 0
LayerCount: 2
Fore
SplineSet
241 79 m 0
 209 79 182 95 182 141 c 0
 182 172 202 198 254 219 c 2
 359 260 l 1
 359 141 l 1
 333 101 272 79 241 79 c 0
207 -11 m 0
 284 -11 339 17 370 63 c 1
 386 21 417 -4 495 -4 c 2
 540 -4 l 1
 545 93 l 1
 497 93 490 102 490 150 c 2
 490 358 l 2
 490 466 436 536 279 536 c 0
 135 536 70 471 70 369 c 2
 70 353 l 1
 195 353 l 1
 195 374 l 2
 195 415 210 443 276 443 c 0
 336 443 359 428 359 386 c 0
 359 345 344 339 317 329 c 2
 221 294 l 2
 98 250 55 203 55 136 c 0
 55 46 116 -11 207 -11 c 0
EndSplineSet
EndChar

StartChar: acute
Encoding: 180 180 178
Width: 270
VWidth: 0
Flags: HW
PickledData: "(dp1
S'org.robofab.postScriptHintData'
p2
(dp3
s."
LayerCount: 2
Fore
SplineSet
52 595 m 1
 125 595 l 1
 238 773 l 1
 107 773 l 1
 52 595 l 1
EndSplineSet
EndChar

StartChar: ae
Encoding: 230 230 182
Width: 846
VWidth: 0
Flags: HW
PickledData: "(dp1
S'org.robofab.postScriptHintData'
p2
(dp3
s."
LayerCount: 2
Fore
SplineSet
494 320 m 1
 494 371 l 2
 494 427 530 443 583 443 c 0
 636 443 669 432 669 374 c 2
 669 320 l 1
 494 320 l 1
251 77 m 0
 207 77 182 102 182 144 c 0
 182 173 195 204 257 218 c 0
 305 229 349 244 361 254 c 1
 361 126 l 1
 337 89 283 77 251 77 c 0
55 143 m 0
 55 48 110 -11 205 -11 c 0
 303 -11 359 15 414 63 c 1
 440 14 496 -11 579 -11 c 0
 721 -11 789 20 792 172 c 1
 669 172 l 1
 667 89 641 81 581 81 c 0
 526 81 494 99 494 157 c 2
 494 251 l 1
 793 251 l 1
 793 364 l 2
 793 469 739 536 580 536 c 0
 516 536 464 515 429 472 c 1
 406 515 345 536 280 536 c 0
 136 536 70 466 70 364 c 2
 70 351 l 1
 195 351 l 1
 195 369 l 2
 195 410 210 443 277 443 c 0
 339 443 361 416 361 376 c 0
 361 308 321 312 219 286 c 0
 77 250 55 210 55 143 c 0
EndSplineSet
EndChar

StartChar: ampersand
Encoding: 38 38 188
Width: 745
VWidth: 0
Flags: HW
PickledData: "(dp1
S'org.robofab.postScriptHintData'
p2
(dp3
s."
LayerCount: 2
Fore
SplineSet
358 95 m 0
 233 95 205 127 205 228 c 0
 205 288 207 326 273 344 c 1
 485 136 l 1
 467 96 411 95 358 95 c 0
358 -13 m 0
 482 -13 542 8 579 50 c 1
 642 -11 l 1
 720 73 l 1
 637 151 l 1
 646 179 650 226 650 268 c 2
 650 401 l 1
 535 401 l 1
 535 244 l 1
 312 464 l 1
 268 510 254 523 254 561 c 0
 254 607 272 637 371 637 c 0
 463 637 488 629 488 562 c 2
 488 542 l 1
 604 542 l 1
 604 583 l 2
 604 698 538 735 367 735 c 0
 191 735 125 681 125 569 c 0
 125 494 160 450 211 403 c 1
 116 375 72 323 72 225 c 0
 72 53 142 -13 358 -13 c 0
EndSplineSet
EndChar

StartChar: approxequal
Encoding: 8776 8776 190
Width: 500
VWidth: 0
Flags: HW
PickledData: "(dp1
S'org.robofab.postScriptHintData'
p2
(dp3
s."
LayerCount: 2
Fore
SplineSet
352 552 m 0
 418 552 471 601 471 693 c 1
 417 693 l 1
 417 658 401 634 357 634 c 0
 318 634 222 701 147 701 c 0
 81 701 29 652 29 560 c 1
 82 560 l 1
 82 595 99 620 143 620 c 0
 182 620 277 552 352 552 c 0
352 360 m 0
 418 360 471 409 471 501 c 1
 417 501 l 1
 417 466 401 442 357 442 c 0
 318 442 222 509 147 509 c 0
 81 509 29 460 29 368 c 1
 82 368 l 1
 82 403 99 428 143 428 c 0
 182 428 277 360 352 360 c 0
EndSplineSet
EndChar

StartChar: asciicircum
Encoding: 94 94 193
Width: 613
VWidth: 0
Flags: HW
PickledData: "(dp1
S'org.robofab.postScriptHintData'
p2
(dp3
s."
LayerCount: 2
Fore
SplineSet
39 250 m 1
 155 250 l 1
 304 543 l 1
 452 250 l 1
 563 250 l 1
 364 626 l 1
 237 626 l 1
 39 250 l 1
EndSplineSet
EndChar

StartChar: asciitilde
Encoding: 126 126 194
Width: 500
VWidth: 0
Flags: HW
PickledData: "(dp1
S'org.robofab.postScriptHintData'
p2
(dp3
s."
LayerCount: 2
Fore
SplineSet
337 552 m 0
 403 552 456 616 456 708 c 1
 403 708 l 1
 403 673 387 634 343 634 c 0
 304 634 237 716 162 716 c 0
 96 716 44 652 44 560 c 1
 97 560 l 1
 97 595 113 635 157 635 c 0
 196 635 262 552 337 552 c 0
EndSplineSet
EndChar

StartChar: asterisk
Encoding: 42 42 195
Width: 487
VWidth: 0
Flags: HW
PickledData: "(dp1
S'org.robofab.postScriptHintData'
p2
(dp3
s."
LayerCount: 2
Fore
SplineSet
200 292 m 1
 287 292 l 1
 273 445 l 1
 394 353 l 1
 440 427 l 1
 303 497 l 1
 445 554 l 1
 406 632 l 1
 272 547 l 1
 287 706 l 1
 200 706 l 1
 214 553 l 1
 93 646 l 1
 47 571 l 1
 184 502 l 1
 42 445 l 1
 81 366 l 1
 214 451 l 1
 200 292 l 1
EndSplineSet
EndChar

StartChar: at
Encoding: 64 64 196
Width: 1000
VWidth: 0
Flags: HW
PickledData: "(dp1
S'org.robofab.postScriptHintData'
p2
(dp3
s."
LayerCount: 2
Fore
SplineSet
579 130 m 0
 525 130 480 153 480 217 c 0
 480 269 501 301 590 325 c 0
 613 331 727 362 729 363 c 1
 729 184 l 1
 724 159 639 130 579 130 c 0
529 -233 m 0
 648 -233 773 -206 862 -183 c 1
 833 -84 l 1
 754 -101 646 -125 542 -125 c 0
 374 -125 242 -61 242 177 c 2
 242 362 l 2
 242 609 336 645 518 645 c 0
 699 645 728 579 728 437 c 1
 728 437 577 400 557 395 c 0
 379 348 356 285 356 209 c 0
 356 90 447 26 555 26 c 0
 632 26 709 59 740 102 c 1
 758 62 775 29 851 29 c 2
 902 29 l 1
 912 126 l 1
 865 126 860 144 860 192 c 2
 859 421 l 2
 859 643 778 744 495 744 c 0
 224 744 117 615 117 376 c 2
 117 170 l 2
 117 -133 291 -233 529 -233 c 0
EndSplineSet
EndChar

StartChar: b
Encoding: 98 98 198
Width: 601
VWidth: 0
Flags: HW
PickledData: "(dp1
S'org.robofab.postScriptHintData'
p2
(dp3
s."
LayerCount: 2
Fore
SplineSet
303 82 m 0
 267 82 236 90 216 105 c 1
 216 418 l 1
 226 423 261 443 309 443 c 0
 368 443 400 422 400 370 c 2
 400 158 l 2
 400 105 360 82 303 82 c 0
325 -11 m 0
 452 -11 533 59 533 161 c 2
 533 368 l 2
 533 456 480 536 333 536 c 0
 289 536 248 525 216 508 c 1
 216 740 l 1
 83 740 l 1
 83 0 l 1
 174 0 l 1
 188 32 l 1
 222 10 268 -11 325 -11 c 0
EndSplineSet
EndChar

StartChar: backslash
Encoding: 92 92 199
Width: 500
VWidth: 0
Flags: HW
PickledData: "(dp1
S'org.robofab.postScriptHintData'
p2
(dp3
s."
LayerCount: 2
Fore
SplineSet
330 0 m 1
 448 0 l 1
 170 740 l 1
 52 740 l 1
 330 0 l 1
EndSplineSet
EndChar

StartChar: bar
Encoding: 124 124 200
Width: 375
VWidth: 0
Flags: HW
PickledData: "(dp1
S'org.robofab.postScriptHintData'
p2
(dp3
s."
LayerCount: 2
Fore
SplineSet
128 -62 m 1
 247 -62 l 1
 247 785 l 1
 128 785 l 1
 128 -62 l 1
EndSplineSet
EndChar

StartChar: braceleft
Encoding: 123 123 202
Width: 484
VWidth: 0
Flags: HW
PickledData: "(dp1
S'org.robofab.postScriptHintData'
p2
(dp3
s."
LayerCount: 2
Fore
SplineSet
413 -62 m 1
 413 22 l 1
 329 22 322 49 322 123 c 2
 322 180 l 2
 322 278 301 332 243 353 c 1
 298 371 321 437 321 527 c 2
 321 591 l 2
 321 659 328 675 413 675 c 1
 413 760 l 1
 239 760 185 740 185 556 c 2
 185 506 l 2
 185 426 164 407 92 407 c 1
 92 291 l 1
 163 291 185 280 185 200 c 2
 185 157 l 2
 185 -6 230 -62 413 -62 c 1
EndSplineSet
EndChar

StartChar: braceright
Encoding: 125 125 203
Width: 483
VWidth: 0
Flags: HW
PickledData: "(dp1
S'org.robofab.postScriptHintData'
p2
(dp3
s."
LayerCount: 2
Fore
SplineSet
86 -62 m 1
 269 -62 314 -6 314 157 c 2
 314 200 l 2
 314 280 337 291 408 291 c 1
 408 407 l 1
 336 407 314 426 314 506 c 2
 314 556 l 2
 314 740 260 760 86 760 c 1
 86 675 l 1
 171 675 178 659 178 591 c 2
 178 527 l 2
 178 437 201 371 256 353 c 1
 198 332 178 278 178 180 c 2
 178 123 l 2
 178 49 170 22 86 22 c 1
 86 -62 l 1
EndSplineSet
EndChar

StartChar: bracketleft
Encoding: 91 91 204
Width: 411
VWidth: 0
Flags: HW
PickledData: "(dp1
S'org.robofab.postScriptHintData'
p2
(dp3
s."
LayerCount: 2
Fore
SplineSet
104 -43 m 1
 339 -43 l 1
 339 35 l 1
 237 35 l 1
 237 699 l 1
 339 699 l 1
 339 777 l 1
 104 777 l 1
 104 -43 l 1
EndSplineSet
EndChar

StartChar: bracketright
Encoding: 93 93 205
Width: 411
VWidth: 0
Flags: HW
PickledData: "(dp1
S'org.robofab.postScriptHintData'
p2
(dp3
s."
LayerCount: 2
Fore
SplineSet
71 -43 m 1
 307 -43 l 1
 307 777 l 1
 71 777 l 1
 71 699 l 1
 174 699 l 1
 174 35 l 1
 71 35 l 1
 71 -43 l 1
EndSplineSet
EndChar

StartChar: breve
Encoding: 728 728 206
Width: 250
VWidth: 0
Flags: HW
PickledData: "(dp1
S'org.robofab.postScriptHintData'
p2
(dp3
s."
LayerCount: 2
Fore
SplineSet
125 594 m 0
 187 594 250 623 250 721 c 1
 180 721 l 1
 180 684 152 672 125 672 c 0
 98 672 70 684 70 721 c 1
 0 721 l 1
 0 623 63 594 125 594 c 0
EndSplineSet
EndChar

StartChar: brokenbar
Encoding: 166 166 207
Width: 375
VWidth: 0
Flags: HW
PickledData: "(dp1
S'org.robofab.postScriptHintData'
p2
(dp3
s."
LayerCount: 2
Fore
SplineSet
137 391 m 1
 239 391 l 1
 239 721 l 1
 137 721 l 1
 137 391 l 1
137 -59 m 1
 239 -59 l 1
 239 288 l 1
 137 288 l 1
 137 -59 l 1
EndSplineSet
EndChar

StartChar: bullet
Encoding: 8226 8226 208
Width: 500
VWidth: 0
Flags: HW
PickledData: "(dp1
S'org.robofab.postScriptHintData'
p2
(dp3
s."
LayerCount: 2
Fore
SplineSet
250 190 m 0
 344 190 406 256 406 345 c 0
 406 435 344 500 250 500 c 0
 156 500 94 435 94 345 c 0
 94 255 156 190 250 190 c 0
EndSplineSet
EndChar

StartChar: uni2219
Encoding: 8729 8729 209
Width: 224
VWidth: 0
Flags: HW
PickledData: "(dp1
S'org.robofab.postScriptHintData'
p2
(dp3
s."
LayerCount: 2
Fore
SplineSet
57 611 m 1
 178 611 l 1
 178 731 l 1
 57 731 l 1
 57 611 l 1
EndSplineSet
EndChar

StartChar: c
Encoding: 99 99 210
Width: 565
VWidth: 0
Flags: HW
PickledData: "(dp1
S'org.robofab.postScriptHintData'
p2
(dp3
s."
AnchorPoint: "bot" 289 0 basechar 0
LayerCount: 2
Fore
SplineSet
288 -11 m 0
 456 -11 498 38 501 186 c 1
 377 186 l 1
 377 97 362 82 291 82 c 0
 230 82 201 101 201 157 c 2
 201 369 l 2
 201 423 234 443 291 443 c 0
 361 443 377 427 377 332 c 1
 502 341 l 1
 502 491 429 536 286 536 c 0
 149 536 68 475 68 370 c 2
 68 160 l 2
 68 69 109 -11 288 -11 c 0
EndSplineSet
EndChar

StartChar: caron
Encoding: 711 711 212
Width: 250
VWidth: 0
Flags: HW
PickledData: "(dp1
S'org.robofab.postScriptHintData'
p2
(dp3
s."
LayerCount: 2
Fore
SplineSet
186 594 m 1
 288 739 l 1
 178 739 l 1
 130 669 l 1
 79 739 l 1
 -34 739 l 1
 76 594 l 1
 186 594 l 1
EndSplineSet
EndChar

StartChar: caron.alt
Encoding: 65537 -1 213
Width: 292
VWidth: 0
Flags: HW
PickledData: "(dp1
S'org.robofab.postScriptHintData'
p2
(dp3
s."
AnchorPoint: "caron.alt" 187 524 mark 0
LayerCount: 2
Fore
SplineSet
346 583 m 1
 376 611 441 700 441 798 c 2
 441 907 l 1
 284 907 l 1
 284 772 l 1
 365 772 l 1
 365 705 318 633 293 605 c 1
 346 583 l 1
EndSplineSet
EndChar

StartChar: cedilla
Encoding: 184 184 218
Width: 250
VWidth: 0
Flags: HW
PickledData: "(dp1
S'org.robofab.postScriptHintData'
p2
(dp3
s."
AnchorPoint: "bot" 95 0 mark 0
LayerCount: 2
Fore
SplineSet
105 -236 m 0
 185 -236 225 -193 225 -147 c 0
 225 -103 203 -57 131 -44 c 1
 128 5 l 1
 77 5 l 1
 77 -79 l 1
 125 -80 147 -110 147 -136 c 0
 147 -161 128 -178 90 -178 c 0
 81 -178 71 -177 59 -175 c 1
 59 -232 l 1
 76 -235 91 -236 105 -236 c 0
EndSplineSet
EndChar

StartChar: cent
Encoding: 162 162 219
Width: 540
VWidth: 0
Flags: HW
PickledData: "(dp1
S'org.robofab.postScriptHintData'
p2
(dp3
s."
LayerCount: 2
Fore
SplineSet
263 -104 m 1
 308 -104 l 1
 308 -11 l 1
 459 -7 498 44 501 186 c 1
 377 186 l 1
 377 97 362 82 291 82 c 0
 230 82 201 101 201 157 c 2
 201 369 l 2
 201 423 234 443 291 443 c 0
 361 443 377 427 377 332 c 1
 502 341 l 1
 502 483 436 531 308 536 c 1
 308 630 l 1
 263 630 l 1
 263 535 l 1
 140 528 68 469 68 370 c 2
 68 160 l 2
 68 73 105 -3 263 -10 c 1
 263 -104 l 1
EndSplineSet
EndChar

StartChar: circumflex
Encoding: 710 710 220
Width: 250
VWidth: 0
Flags: HW
PickledData: "(dp1
S'org.robofab.postScriptHintData'
p2
(dp3
s."
LayerCount: 2
Fore
SplineSet
-34 594 m 1
 79 594 l 1
 130 664 l 1
 178 594 l 1
 288 594 l 1
 186 739 l 1
 76 739 l 1
 -34 594 l 1
EndSplineSet
EndChar

StartChar: comma
Encoding: 44 44 222
Width: 375
VWidth: 0
Flags: HW
PickledData: "(dp1
S'org.robofab.postScriptHintData'
p2
(dp3
s."
LayerCount: 2
Fore
SplineSet
170 -190 m 1
 200 -163 266 -72 266 26 c 2
 266 135 l 1
 109 135 l 1
 109 0 l 1
 189 0 l 1
 189 -67 143 -139 118 -167 c 1
 170 -190 l 1
EndSplineSet
EndChar

StartChar: copyright
Encoding: 169 169 223
Width: 867
VWidth: 0
Flags: HW
PickledData: "(dp1
S'org.robofab.postScriptHintData'
p2
(dp3
s."
LayerCount: 2
Fore
SplineSet
434 -7 m 0
 637 -7 793 148 793 353 c 0
 793 557 637 711 434 711 c 0
 232 711 74 557 74 353 c 0
 74 148 232 -7 434 -7 c 0
435 40 m 0
 257 40 127 175 127 353 c 0
 127 531 257 665 435 665 c 0
 614 665 741 531 741 353 c 0
 741 175 614 40 435 40 c 0
439 140 m 0
 574 140 598 206 598 292 c 2
 598 309 l 1
 541 309 l 1
 541 279 l 2
 541 205 514 184 439 184 c 0
 365 184 326 205 326 279 c 2
 326 435 l 2
 326 509 364 533 438 533 c 0
 512 533 541 509 541 435 c 2
 541 403 l 1
 598 408 l 1
 598 420 l 2
 598 509 573 577 438 577 c 0
 297 577 267 513 267 424 c 2
 267 288 l 2
 267 201 299 140 439 140 c 0
EndSplineSet
EndChar

StartChar: currency
Encoding: 164 164 224
Width: 549
VWidth: 0
Flags: HW
PickledData: "(dp1
S'org.robofab.postScriptHintData'
p2
(dp3
s."
LayerCount: 2
Fore
SplineSet
273 258 m 0
 209 258 180 304 180 353 c 0
 180 402 209 448 273 448 c 0
 336 448 365 402 365 353 c 0
 365 304 336 258 273 258 c 0
273 186 m 0
 326 186 368 207 396 237 c 1
 464 188 l 1
 489 227 l 1
 422 275 l 1
 434 298 439 326 439 353 c 0
 439 380 433 409 421 433 c 1
 488 481 l 1
 465 521 l 1
 395 471 l 1
 367 501 326 520 273 520 c 0
 220 520 180 501 152 473 c 1
 86 521 l 1
 61 482 l 1
 125 436 l 1
 112 411 105 382 105 353 c 0
 105 325 112 297 124 273 c 1
 62 228 l 1
 85 187 l 1
 151 234 l 1
 179 205 220 186 273 186 c 0
EndSplineSet
EndChar

StartChar: d
Encoding: 100 100 225
Width: 599
VWidth: 0
Flags: HW
PickledData: "(dp1
S'org.robofab.postScriptHintData'
p2
(dp3
s."
AnchorPoint: "caron.alt" 468 524 basechar 0
LayerCount: 2
Fore
SplineSet
292 82 m 0
 233 82 201 103 201 156 c 2
 201 371 l 2
 201 424 236 443 297 443 c 0
 334 443 366 433 384 425 c 1
 384 103 l 1
 363 91 329 82 292 82 c 0
277 -11 m 0
 331 -11 379 7 413 31 c 1
 427 0 l 1
 517 0 l 1
 517 740 l 1
 384 740 l 1
 384 517 l 1
 353 528 316 536 286 536 c 0
 133 536 68 465 68 368 c 2
 68 158 l 2
 68 53 135 -11 277 -11 c 0
EndSplineSet
EndChar

StartChar: dagger
Encoding: 8224 8224 226
Width: 500
VWidth: 0
Flags: HW
PickledData: "(dp1
S'org.robofab.postScriptHintData'
p2
(dp3
s."
LayerCount: 2
Fore
SplineSet
200 0 m 1
 300 0 l 1
 300 418 l 1
 422 418 l 1
 422 495 l 1
 300 495 l 1
 300 646 l 1
 200 646 l 1
 200 495 l 1
 78 495 l 1
 78 418 l 1
 200 418 l 1
 200 0 l 1
EndSplineSet
EndChar

StartChar: daggerdbl
Encoding: 8225 8225 227
Width: 500
VWidth: 0
Flags: HW
PickledData: "(dp1
S'org.robofab.postScriptHintData'
p2
(dp3
s."
LayerCount: 2
Fore
SplineSet
200 0 m 1
 300 0 l 1
 300 187 l 1
 394 187 l 1
 394 278 l 1
 300 278 l 1
 300 426 l 1
 394 426 l 1
 394 517 l 1
 300 517 l 1
 300 646 l 1
 200 646 l 1
 200 517 l 1
 107 517 l 1
 107 426 l 1
 200 426 l 1
 200 278 l 1
 107 278 l 1
 107 187 l 1
 200 187 l 1
 200 0 l 1
EndSplineSet
EndChar

StartChar: dcroat
Encoding: 273 273 229
Width: 599
VWidth: 0
Flags: HW
PickledData: "(dp1
S'org.robofab.postScriptHintData'
p2
(dp3
s."
LayerCount: 2
Fore
SplineSet
277 -11 m 0
 331 -11 379 7 413 31 c 1
 427 0 l 1
 517 0 l 1
 517 603 l 1
 598 603 l 1
 598 680 l 1
 517 680 l 1
 517 740 l 1
 384 740 l 1
 384 680 l 1
 303 680 l 1
 303 603 l 1
 384 603 l 1
 384 517 l 1
 353 528 316 536 286 536 c 0
 133 536 68 465 68 368 c 2
 68 158 l 2
 68 53 135 -11 277 -11 c 0
292 82 m 0
 233 82 201 103 201 156 c 2
 201 371 l 2
 201 424 236 443 297 443 c 0
 334 443 366 433 384 425 c 1
 384 103 l 1
 363 91 329 82 292 82 c 0
EndSplineSet
EndChar

StartChar: degree
Encoding: 176 176 231
Width: 475
VWidth: 0
Flags: HW
PickledData: "(dp1
S'org.robofab.postScriptHintData'
p2
(dp3
s."
LayerCount: 2
Fore
SplineSet
239 415 m 0
 354 415 413 493 413 576 c 0
 413 659 354 738 239 738 c 0
 122 738 62 659 62 576 c 0
 62 493 122 415 239 415 c 0
239 484 m 0
 172 484 141 529 141 577 c 0
 141 624 172 669 239 669 c 0
 305 669 336 624 336 577 c 0
 336 529 305 484 239 484 c 0
EndSplineSet
EndChar

StartChar: dieresis
Encoding: 168 168 232
Width: 472
VWidth: 0
Flags: HW
PickledData: "(dp1
S'org.robofab.postScriptHintData'
p2
(dp3
s."
LayerCount: 2
Fore
SplineSet
305 607 m 1
 434 607 l 1
 434 721 l 1
 305 721 l 1
 305 607 l 1
56 607 m 1
 185 607 l 1
 185 721 l 1
 56 721 l 1
 56 607 l 1
EndSplineSet
EndChar

StartChar: divide
Encoding: 247 247 233
Width: 490
VWidth: 0
Flags: HW
PickledData: "(dp1
S'org.robofab.postScriptHintData'
p2
(dp3
s."
LayerCount: 2
Fore
SplineSet
190 387 m 1
 301 387 l 1
 301 499 l 1
 190 499 l 1
 190 387 l 1
55 234 m 1
 436 234 l 1
 436 313 l 1
 55 313 l 1
 55 234 l 1
190 46 m 1
 301 46 l 1
 301 158 l 1
 190 158 l 1
 190 46 l 1
EndSplineSet
EndChar

StartChar: dollar
Encoding: 36 36 235
Width: 625
VWidth: 0
Flags: HW
PickledData: "(dp1
S'org.robofab.postScriptHintData'
p2
(dp3
s."
LayerCount: 2
Fore
SplineSet
300 618 m 1
 300 446 l 1
 230 467 209 490 209 539 c 0
 209 591 240 613 300 618 c 1
354 291 m 1
 427 267 438 239 438 201 c 0
 438 145 423 108 354 102 c 1
 354 291 l 1
300 -152 m 1
 354 -152 l 1
 354 -13 l 1
 506 -6 571 89 571 206 c 0
 571 319 522 380 425 409 c 2
 354 430 l 1
 354 618 l 1
 414 614 469 597 517 575 c 1
 558 677 l 1
 501 711 433 728 354 732 c 1
 354 858 l 1
 300 858 l 1
 300 733 l 1
 166 728 66 663 66 534 c 0
 66 442 98 368 216 333 c 2
 300 308 l 1
 300 102 l 1
 224 108 156 134 108 159 c 1
 59 53 l 1
 122 17 213 -7 300 -12 c 1
 300 -152 l 1
EndSplineSet
EndChar

StartChar: dotaccent
Encoding: 729 729 236
Width: 238
VWidth: 0
Flags: HW
PickledData: "(dp1
S'org.robofab.postScriptHintData'
p2
(dp3
s."
LayerCount: 2
Fore
SplineSet
57 611 m 1
 188 611 l 1
 188 735 l 1
 57 735 l 1
 57 611 l 1
EndSplineSet
EndChar

StartChar: dotlessi
Encoding: 305 305 237
Width: 278
VWidth: 0
Flags: HW
PickledData: "(dp1
S'org.robofab.postScriptHintData'
p2
(dp3
s."
AnchorPoint: "ogonek" 151 0 basechar 0
LayerCount: 2
Fore
SplineSet
83 0 m 1
 206 0 l 1
 206 524 l 1
 83 524 l 1
 83 0 l 1
EndSplineSet
EndChar

StartChar: uni0237
Encoding: 567 567 238
Width: 328
VWidth: 0
Flags: HW
PickledData: "(dp1
S'org.robofab.postScriptHintData'
p2
(dp3
s."
LayerCount: 2
Fore
SplineSet
8 -161 m 1
 61 -161 l 2
 191 -161 244 -89 244 15 c 2
 244 524 l 1
 110 524 l 1
 110 21 l 2
 110 -19 95 -66 27 -66 c 2
 5 -66 l 1
 8 -161 l 1
EndSplineSet
EndChar

StartChar: e
Encoding: 101 101 241
Width: 576
VWidth: 0
Flags: HW
PickledData: "(dp1
S'org.robofab.postScriptHintData'
p2
(dp3
s."
AnchorPoint: "bot" 294 0 basechar 0
AnchorPoint: "ogonek" 344 0 basechar 0
LayerCount: 2
Fore
SplineSet
201 318 m 1
 201 377 l 2
 201 433 242 443 295 443 c 0
 348 443 390 437 390 379 c 2
 390 318 l 1
 201 318 l 1
294 -11 m 0
 431 -11 511 15 515 161 c 1
 392 161 l 1
 390 82 357 81 296 81 c 0
 233 81 201 89 201 151 c 2
 201 237 l 1
 515 237 l 1
 515 364 l 2
 515 469 454 536 292 536 c 0
 156 536 68 476 68 369 c 2
 68 164 l 2
 68 29 166 -11 294 -11 c 0
EndSplineSet
EndChar

StartChar: eight
Encoding: 56 56 250
Width: 673
VWidth: 0
Flags: HW
PickledData: "(dp1
S'org.robofab.postScriptHintData'
p2
(dp3
s."
LayerCount: 2
Fore
SplineSet
336 424 m 1
 253 464 220 493 220 546 c 0
 220 594 246 629 336 629 c 0
 426 629 451 592 451 546 c 0
 451 495 415 464 336 424 c 1
336 94 m 0
 235 94 204 138 204 191 c 0
 204 245 246 289 336 328 c 1
 426 289 468 245 468 191 c 0
 468 138 437 94 336 94 c 0
335 -10 m 0
 507 -10 604 58 604 183 c 0
 604 269 556 340 441 382 c 1
 542 414 585 480 585 551 c 0
 585 651 518 730 336 730 c 0
 156 730 83 652 83 554 c 0
 83 476 126 413 223 382 c 1
 127 340 70 279 70 182 c 0
 70 62 168 -10 335 -10 c 0
EndSplineSet
EndChar

StartChar: emdash
Encoding: 8212 8212 254
Width: 469
VWidth: 0
Flags: HW
PickledData: "(dp1
S'org.robofab.postScriptHintData'
p2
(dp3
s."
LayerCount: 2
Fore
SplineSet
1 187 m 1
 467 187 l 1
 467 271 l 1
 1 271 l 1
 1 187 l 1
EndSplineSet
EndChar

StartChar: emptyset
Encoding: 8709 8709 255
Width: 757
VWidth: 0
Flags: HW
PickledData: "(dp1
S'org.robofab.postScriptHintData'
p2
(dp3
s."
LayerCount: 2
Fore
SplineSet
97 34 m 1
 140 -3 l 1
 211 81 l 1
 259 50 316 32 379 32 c 0
 549 32 680 162 680 333 c 0
 680 416 649 489 598 542 c 1
 666 624 l 1
 623 661 l 1
 554 579 l 1
 505 613 445 633 379 633 c 0
 210 633 78 503 78 333 c 0
 78 247 112 171 167 117 c 1
 97 34 l 1
552 489 m 1
 587 448 607 394 607 333 c 0
 607 200 513 101 380 101 c 0
 333 101 291 113 256 135 c 1
 552 489 l 1
510 526 m 1
 212 171 l 1
 174 212 151 269 151 333 c 0
 151 465 248 565 380 565 c 0
 430 565 474 550 510 526 c 1
EndSplineSet
EndChar

StartChar: endash
Encoding: 8211 8211 256
Width: 349
VWidth: 0
Flags: HW
PickledData: "(dp1
S'org.robofab.postScriptHintData'
p2
(dp3
s."
LayerCount: 2
Fore
SplineSet
62 218 m 1
 287 218 l 1
 287 299 l 1
 62 299 l 1
 62 218 l 1
EndSplineSet
EndChar

StartChar: eng
Encoding: 331 331 257
Width: 612
VWidth: 0
Flags: HW
PickledData: "(dp1
S'org.robofab.postScriptHintData'
p2
(dp3
s."
LayerCount: 2
Fore
SplineSet
270 -178 m 1
 486 -178 538 -99 538 87 c 2
 538 388 l 2
 538 476 470 536 369 536 c 0
 296 536 233 503 211 463 c 1
 211 524 l 1
 78 524 l 1
 78 0 l 1
 211 0 l 1
 211 370 l 2
 211 421 265 443 313 443 c 0
 354 443 405 430 405 375 c 2
 405 84 l 2
 405 -68 375 -74 256 -85 c 1
 270 -178 l 1
EndSplineSet
EndChar

StartChar: equal
Encoding: 61 61 259
Width: 429
VWidth: 0
Flags: HW
PickledData: "(dp1
S'org.robofab.postScriptHintData'
p2
(dp3
s."
LayerCount: 2
Fore
SplineSet
55 361 m 1
 375 361 l 1
 375 446 l 1
 55 446 l 1
 55 361 l 1
55 181 m 1
 375 181 l 1
 375 266 l 1
 55 266 l 1
 55 181 l 1
EndSplineSet
EndChar

StartChar: estimated
Encoding: 8494 8494 260
Width: 588
VWidth: 0
Flags: HW
PickledData: "(dp1
S'org.robofab.postScriptHintData'
p2
(dp3
s."
LayerCount: 2
Fore
SplineSet
46 356 m 0
 46 201 137 87 323 87 c 0
 424 87 490 130 538 188 c 1
 497 227 l 1
 452 178 397 148 323 148 c 0
 259 148 217 168 182 208 c 1
 182 342 l 1
 542 342 l 1
 542 516 466 625 311 625 c 0
 155 625 46 508 46 356 c 0
311 573 m 0
 361 573 411 554 439 515 c 1
 439 395 l 1
 178 395 l 1
 178 515 l 1
 208 553 260 573 311 573 c 0
EndSplineSet
EndChar

StartChar: eth
Encoding: 240 240 261
Width: 640
VWidth: 0
Flags: HW
PickledData: "(dp1
S'org.robofab.postScriptHintData'
p2
(dp3
s."
LayerCount: 2
Fore
SplineSet
331 87 m 0
 249 87 217 108 217 163 c 2
 217 299 l 2
 217 363 260 387 331 387 c 0
 360 387 412 374 433 359 c 1
 440 319 444 243 444 209 c 0
 444 126 435 87 331 87 c 0
331 -11 m 0
 518 -11 576 96 576 225 c 2
 576 262 l 2
 576 555 456 672 334 707 c 1
 370 780 l 1
 312 808 l 1
 270 725 l 1
 234 733 199 735 169 735 c 0
 153 735 138 734 125 733 c 1
 114 652 l 1
 148 652 188 651 230 644 c 1
 192 570 l 1
 250 542 l 1
 294 627 l 1
 352 610 411 556 422 450 c 1
 409 461 335 476 303 476 c 0
 175 476 81 413 81 302 c 2
 81 167 l 2
 81 58 160 -11 331 -11 c 0
EndSplineSet
EndChar

StartChar: exclam
Encoding: 33 33 263
Width: 316
VWidth: 0
Flags: HW
PickledData: "(dp1
S'org.robofab.postScriptHintData'
p2
(dp3
s."
LayerCount: 2
Fore
SplineSet
137 200 m 1
 174 200 l 1
 174 200 223 663 223 721 c 1
 96 721 l 1
 96 663 137 200 137 200 c 1
94 0 m 1
 216 0 l 1
 216 120 l 1
 94 120 l 1
 94 0 l 1
EndSplineSet
EndChar

StartChar: f
Encoding: 102 102 265
Width: 379
VWidth: 0
Flags: HW
PickledData: "(dp1
S'org.robofab.postScriptHintData'
p2
(dp3
s."
LayerCount: 2
Fore
SplineSet
112 0 m 1
 245 0 l 1
 245 440 l 1
 349 440 l 1
 349 524 l 1
 245 524 l 1
 245 579 l 2
 245 614 254 648 312 648 c 2
 354 648 l 1
 350 740 l 1
 289 740 l 2
 164 740 112 674 112 549 c 2
 112 524 l 1
 42 524 l 1
 42 440 l 1
 112 440 l 1
 112 0 l 1
EndSplineSet
EndChar

StartChar: uni02C9
Encoding: 713 713 272
Width: 249
VWidth: 0
Flags: HW
LayerCount: 2
Fore
SplineSet
-23 611 m 1
 272 611 l 1
 272 688 l 1
 -23 688 l 1
 -23 611 l 1
EndSplineSet
EndChar

StartChar: five
Encoding: 53 53 273
Width: 673
VWidth: 0
Flags: HW
PickledData: "(dp1
S'org.robofab.postScriptHintData'
p2
(dp3
s."
LayerCount: 2
Fore
SplineSet
350 -10 m 0
 517 -10 622 87 622 231 c 0
 622 362 534 467 388 467 c 0
 340 467 277 456 245 423 c 1
 265 601 l 1
 567 601 l 1
 567 721 l 1
 156 721 l 1
 116 347 l 1
 221 295 l 1
 266 338 323 345 362 345 c 0
 429 345 480 302 480 231 c 0
 480 134 422 99 342 99 c 0
 288 99 209 111 129 159 c 1
 91 62 l 1
 133 32 239 -10 350 -10 c 0
EndSplineSet
EndChar

StartChar: florin
Encoding: 402 402 275
Width: 500
VWidth: 0
Flags: HW
PickledData: "(dp1
S'org.robofab.postScriptHintData'
p2
(dp3
s."
LayerCount: 2
Fore
SplineSet
179 -100 m 0
 290 -100 300 -33 300 49 c 2
 300 412 l 1
 384 412 l 1
 384 470 l 1
 300 470 l 1
 300 589 l 2
 300 625 306 658 354 658 c 0
 361 658 372 655 382 655 c 1
 382 727 l 1
 356 730 341 730 323 730 c 0
 210 730 200 663 200 577 c 2
 200 470 l 1
 128 470 l 1
 128 412 l 1
 200 412 l 1
 200 36 l 2
 200 0 193 -27 149 -27 c 0
 142 -27 130 -26 118 -24 c 1
 118 -96 l 1
 144 -99 160 -100 179 -100 c 0
EndSplineSet
EndChar

StartChar: foundryicon
Encoding: 65541 -1 276
Width: 657
VWidth: 0
Flags: HW
PickledData: "(dp1
S'org.robofab.postScriptHintData'
p2
(dp3
s."
LayerCount: 2
Fore
SplineSet
137 1 m 1
 327 136 l 1
 521 1 l 1
 450 225 l 1
 641 369 l 1
 404 369 l 1
 327 593 l 1
 253 369 l 1
 17 369 l 1
 207 225 l 1
 137 1 l 1
237 198 m 1
 237 328 l 1
 289 328 l 1
 372 255 l 1
 372 328 l 1
 423 328 l 1
 423 198 l 1
 372 198 l 1
 289 270 l 1
 289 198 l 1
 237 198 l 1
EndSplineSet
EndChar

StartChar: four
Encoding: 52 52 277
Width: 673
VWidth: 0
Flags: HW
PickledData: "(dp1
S'org.robofab.postScriptHintData'
p2
(dp3
s."
LayerCount: 2
Fore
SplineSet
410 0 m 1
 525 0 l 1
 525 138 l 1
 633 138 l 1
 633 258 l 1
 525 258 l 1
 525 421 l 1
 410 421 l 1
 410 258 l 1
 241 258 l 1
 451 721 l 1
 302 721 l 1
 83 259 l 1
 83 138 l 1
 410 138 l 1
 410 0 l 1
EndSplineSet
EndChar

StartChar: uni2074
Encoding: 8308 8308 278
Width: 544
VWidth: 0
Flags: HW
PickledData: "(dp1
S'org.robofab.postScriptHintData'
p2
(dp3
s."
LayerCount: 2
Fore
SplineSet
303 301 m 1
 378 301 l 1
 378 397 l 1
 449 397 l 1
 449 475 l 1
 378 475 l 1
 378 578 l 1
 303 578 l 1
 303 475 l 1
 202 475 l 1
 315 765 l 1
 212 765 l 1
 88 476 l 1
 88 397 l 1
 303 397 l 1
 303 301 l 1
EndSplineSet
EndChar

StartChar: fraction
Encoding: 8260 8260 279
Width: 448
VWidth: 0
Flags: HW
PickledData: "(dp1
S'org.robofab.postScriptHintData'
p2
(dp3
s."
LayerCount: 2
Fore
SplineSet
27 0 m 1
 146 0 l 1
 422 740 l 1
 304 740 l 1
 27 0 l 1
EndSplineSet
EndChar

StartChar: g
Encoding: 103 103 280
Width: 606
VWidth: 0
Flags: HW
PickledData: "(dp1
S'org.robofab.postScriptHintData'
p2
(dp3
s."
LayerCount: 2
Fore
SplineSet
295 104 m 0
 240 104 201 121 201 174 c 2
 201 370 l 2
 201 423 234 443 295 443 c 0
 355 443 392 420 392 406 c 2
 392 127 l 1
 374 114 340 104 295 104 c 0
288 -215 m 0
 456 -215 525 -135 525 -6 c 2
 525 525 l 1
 426 525 l 1
 415 487 l 1
 382 514 326 536 268 536 c 0
 120 536 68 457 68 367 c 2
 68 179 l 2
 68 76 147 16 273 16 c 0
 313 16 361 24 392 43 c 1
 392 -15 l 2
 392 -87 359 -118 283 -118 c 0
 242 -118 191 -112 142 -98 c 1
 115 -188 l 1
 152 -206 223 -215 288 -215 c 0
EndSplineSet
EndChar

StartChar: germandbls
Encoding: 223 223 287
Width: 627
VWidth: 0
Flags: HW
PickledData: "(dp1
S'org.robofab.postScriptHintData'
p2
(dp3
s."
LayerCount: 2
Fore
SplineSet
68 0 m 1
 220 0 l 1
 220 551 l 2
 220 607 238 644 309 644 c 0
 397 644 408 589 408 542 c 0
 408 489 391 436 302 436 c 1
 302 343 l 1
 402 333 451 317 451 206 c 0
 451 129 417 83 295 83 c 1
 304 -10 l 1
 513 -10 592 76 592 195 c 0
 592 267 569 371 429 400 c 1
 509 422 544 484 544 548 c 0
 544 652 481 736 299 736 c 0
 143 736 68 659 68 546 c 2
 68 0 l 1
EndSplineSet
EndChar

StartChar: grave
Encoding: 96 96 288
Width: 271
VWidth: 0
Flags: HW
PickledData: "(dp1
S'org.robofab.postScriptHintData'
p2
(dp3
s."
LayerCount: 2
Fore
SplineSet
37 773 m 1
 151 595 l 1
 224 595 l 1
 168 773 l 1
 37 773 l 1
EndSplineSet
EndChar

StartChar: greater
Encoding: 62 62 289
Width: 500
VWidth: 0
Flags: HW
PickledData: "(dp1
S'org.robofab.postScriptHintData'
p2
(dp3
s."
LayerCount: 2
Fore
SplineSet
74 15 m 1
 438 218 l 1
 438 325 l 1
 74 528 l 1
 74 414 l 1
 349 271 l 1
 74 127 l 1
 74 15 l 1
EndSplineSet
EndChar

StartChar: greaterequal
Encoding: 8805 8805 290
Width: 610
VWidth: 0
Flags: HW
PickledData: "(dp1
S'org.robofab.postScriptHintData'
p2
(dp3
s."
LayerCount: 2
Fore
SplineSet
90 0 m 1
 521 0 l 1
 521 85 l 1
 90 85 l 1
 90 0 l 1
120 115 m 1
 482 318 l 1
 482 425 l 1
 120 628 l 1
 120 514 l 1
 395 372 l 1
 120 227 l 1
 120 115 l 1
EndSplineSet
EndChar

StartChar: guillemotleft
Encoding: 171 171 291
Width: 500
VWidth: 0
Flags: HW
PickledData: "(dp1
S'org.robofab.postScriptHintData'
p2
(dp3
s."
LayerCount: 2
Fore
SplineSet
372 39 m 1
 439 73 l 1
 339 259 l 1
 439 444 l 1
 368 479 l 1
 235 259 l 1
 372 39 l 1
169 39 m 1
 238 73 l 1
 137 259 l 1
 238 444 l 1
 166 479 l 1
 33 259 l 1
 169 39 l 1
EndSplineSet
EndChar

StartChar: guillemotright
Encoding: 187 187 292
Width: 500
VWidth: 0
Flags: HW
PickledData: "(dp1
S'org.robofab.postScriptHintData'
p2
(dp3
s."
LayerCount: 2
Fore
SplineSet
348 39 m 1
 481 259 l 1
 345 479 l 1
 276 444 l 1
 377 259 l 1
 276 73 l 1
 348 39 l 1
146 39 m 1
 279 259 l 1
 143 479 l 1
 75 444 l 1
 175 259 l 1
 75 73 l 1
 146 39 l 1
EndSplineSet
EndChar

StartChar: guilsinglleft
Encoding: 8249 8249 293
Width: 375
VWidth: 0
Flags: HW
PickledData: "(dp1
S'org.robofab.postScriptHintData'
p2
(dp3
s."
LayerCount: 2
Fore
SplineSet
222 39 m 1
 290 73 l 1
 189 259 l 1
 290 444 l 1
 218 479 l 1
 85 259 l 1
 222 39 l 1
EndSplineSet
EndChar

StartChar: guilsinglright
Encoding: 8250 8250 294
Width: 375
VWidth: 0
Flags: HW
PickledData: "(dp1
S'org.robofab.postScriptHintData'
p2
(dp3
s."
LayerCount: 2
Fore
SplineSet
160 39 m 1
 293 259 l 1
 156 479 l 1
 88 444 l 1
 189 259 l 1
 88 73 l 1
 160 39 l 1
EndSplineSet
EndChar

StartChar: h
Encoding: 104 104 295
Width: 621
VWidth: 0
Flags: HW
PickledData: "(dp1
S'org.robofab.postScriptHintData'
p2
(dp3
s."
LayerCount: 2
Fore
SplineSet
83 0 m 1
 216 0 l 1
 216 360 l 2
 216 411 272 437 320 437 c 0
 362 437 409 424 409 369 c 2
 409 0 l 1
 542 0 l 1
 542 388 l 2
 542 476 481 536 380 536 c 0
 307 536 238 511 216 474 c 1
 216 740 l 1
 83 740 l 1
 83 0 l 1
EndSplineSet
EndChar

StartChar: hbar
Encoding: 295 295 296
Width: 612
VWidth: 0
Flags: HW
PickledData: "(dp1
S'org.robofab.postScriptHintData'
p2
(dp3
s."
LayerCount: 2
Fore
SplineSet
83 0 m 1
 216 0 l 1
 216 360 l 2
 216 411 272 437 320 437 c 0
 362 437 409 424 409 369 c 2
 409 0 l 1
 542 0 l 1
 542 388 l 2
 542 476 481 536 380 536 c 0
 307 536 238 511 216 474 c 1
 216 596 l 1
 359 596 l 1
 359 666 l 1
 216 666 l 1
 216 740 l 1
 83 740 l 1
 83 666 l 1
 2 666 l 1
 2 596 l 1
 83 596 l 1
 83 0 l 1
EndSplineSet
EndChar

StartChar: hungarumlaut
Encoding: 733 733 298
Width: 500
VWidth: 0
Flags: HW
PickledData: "(dp1
S'org.robofab.postScriptHintData'
p2
(dp3
s."
LayerCount: 2
Fore
SplineSet
252 565 m 1
 325 565 l 1
 438 743 l 1
 308 743 l 1
 252 565 l 1
52 565 m 1
 125 565 l 1
 238 743 l 1
 107 743 l 1
 52 565 l 1
EndSplineSet
EndChar

StartChar: hyphen
Encoding: 45 45 299
Width: 472
VWidth: 0
Flags: HW
PickledData: "(dp1
S'org.robofab.postScriptHintData'
p2
(dp3
s."
LayerCount: 2
Fore
SplineSet
64 241 m 1
 408 241 l 1
 408 313 l 1
 64 313 l 1
 64 241 l 1
EndSplineSet
EndChar

StartChar: infinity
Encoding: 8734 8734 311
Width: 1000
VWidth: 0
Flags: HW
PickledData: "(dp1
S'org.robofab.postScriptHintData'
p2
(dp3
s."
LayerCount: 2
Fore
SplineSet
743 290 m 0
 707 290 618 349 566 374 c 1
 618 399 707 458 743 458 c 0
 796 458 815 422 815 374 c 0
 815 326 796 290 743 290 c 0
257 290 m 0
 204 290 185 326 185 374 c 0
 185 422 204 458 257 458 c 0
 293 458 382 399 434 374 c 1
 382 349 293 290 257 290 c 0
248 176 m 0
 337 176 500 303 500 303 c 1
 500 303 663 176 752 176 c 0
 831 176 894 245 894 374 c 0
 894 503 831 571 752 571 c 0
 663 571 500 444 500 444 c 1
 500 444 337 571 248 571 c 0
 169 571 106 503 106 374 c 0
 106 245 169 176 248 176 c 0
EndSplineSet
EndChar

StartChar: integral
Encoding: 8747 8747 312
Width: 338
VWidth: 0
Flags: HW
PickledData: "(dp1
S'org.robofab.postScriptHintData'
p2
(dp3
s."
LayerCount: 2
Fore
SplineSet
86 -128 m 0
 197 -128 208 -61 208 21 c 2
 208 562 l 2
 208 599 213 631 261 631 c 0
 268 631 280 629 290 628 c 1
 290 700 l 1
 264 703 248 704 230 704 c 0
 117 704 107 636 107 550 c 2
 107 8 l 2
 107 -28 101 -56 57 -56 c 0
 50 -56 37 -54 25 -52 c 1
 25 -124 l 1
 51 -127 67 -128 86 -128 c 0
EndSplineSet
EndChar

StartChar: k
Encoding: 107 107 318
Width: 591
VWidth: 0
Flags: HW
PickledData: "(dp1
S'org.robofab.postScriptHintData'
p2
(dp3
s."
AnchorPoint: "bot" 324 0 basechar 0
LayerCount: 2
Fore
SplineSet
83 0 m 1
 216 0 l 1
 216 183 l 1
 274 243 l 1
 438 0 l 1
 583 0 l 1
 377 298 l 1
 575 524 l 1
 423 524 l 1
 216 294 l 1
 216 740 l 1
 83 740 l 1
 83 0 l 1
EndSplineSet
EndChar

StartChar: kgreenlandic
Encoding: 312 312 321
Width: 592
VWidth: 0
Flags: HW
PickledData: "(dp1
S'org.robofab.postScriptHintData'
p2
(dp3
s."
LayerCount: 2
Fore
SplineSet
83 0 m 1
 217 0 l 1
 217 188 l 1
 264 236 l 1
 422 0 l 1
 581 0 l 1
 376 295 l 1
 571 524 l 1
 413 524 l 1
 388 497 242 321 217 294 c 1
 217 524 l 1
 83 524 l 1
 83 0 l 1
EndSplineSet
EndChar

StartChar: l
Encoding: 108 108 322
Width: 358
VWidth: 0
Flags: HW
PickledData: "(dp1
S'org.robofab.postScriptHintData'
p2
(dp3
s."
AnchorPoint: "bot" 230 0 basechar 0
AnchorPoint: "caron.alt" 159 524 basechar 0
LayerCount: 2
Fore
SplineSet
260 -6 m 2
 316 -6 l 1
 326 93 l 1
 310 93 l 2
 239 93 216 116 216 174 c 2
 216 740 l 1
 83 740 l 1
 83 172 l 2
 83 40 143 -6 260 -6 c 2
EndSplineSet
EndChar

StartChar: less
Encoding: 60 60 327
Width: 500
VWidth: 0
Flags: HW
PickledData: "(dp1
S'org.robofab.postScriptHintData'
p2
(dp3
s."
LayerCount: 2
Fore
SplineSet
418 15 m 1
 418 128 l 1
 143 271 l 1
 418 415 l 1
 418 528 l 1
 55 324 l 1
 55 217 l 1
 418 15 l 1
EndSplineSet
EndChar

StartChar: lessequal
Encoding: 8804 8804 328
Width: 611
VWidth: 0
Flags: HW
PickledData: "(dp1
S'org.robofab.postScriptHintData'
p2
(dp3
s."
LayerCount: 2
Fore
SplineSet
112 0 m 1
 499 0 l 1
 499 85 l 1
 112 85 l 1
 112 0 l 1
500 117 m 1
 500 229 l 1
 205 373 l 1
 500 517 l 1
 500 629 l 1
 117 426 l 1
 117 319 l 1
 500 117 l 1
EndSplineSet
EndChar

StartChar: logicalnot
Encoding: 172 172 330
Width: 500
VWidth: 0
Flags: HW
PickledData: "(dp1
S'org.robofab.postScriptHintData'
p2
(dp3
s."
LayerCount: 2
Fore
SplineSet
344 110 m 1
 417 110 l 1
 417 370 l 1
 63 370 l 1
 63 287 l 1
 344 287 l 1
 344 110 l 1
EndSplineSet
EndChar

StartChar: lozenge
Encoding: 9674 9674 331
Width: 539
VWidth: 0
Flags: HW
PickledData: "(dp1
S'org.robofab.postScriptHintData'
p2
(dp3
s."
LayerCount: 2
Fore
SplineSet
277 92 m 1
 154 368 l 1
 277 638 l 1
 387 368 l 1
 277 92 l 1
228 0 m 1
 324 0 l 1
 489 368 l 1
 324 735 l 1
 228 735 l 1
 50 368 l 1
 228 0 l 1
EndSplineSet
EndChar

StartChar: lslash
Encoding: 322 322 332
Width: 345
VWidth: 0
Flags: HW
PickledData: "(dp1
S'org.robofab.postScriptHintData'
p2
(dp3
s."
LayerCount: 2
Fore
SplineSet
12 332 m 1
 292 447 l 1
 292 517 l 1
 12 402 l 1
 12 332 l 1
EndSplineSet
Refer: 322 108 N 1 0 0 1 0 0 2
EndChar

StartChar: m
Encoding: 109 109 333
Width: 933
VWidth: 0
Flags: HW
PickledData: "(dp1
S'org.robofab.postScriptHintData'
p2
(dp3
s."
LayerCount: 2
Fore
SplineSet
82 0 m 1
 215 0 l 1
 215 361 l 2
 215 412 277 438 325 438 c 0
 367 438 403 427 403 372 c 2
 403 0 l 1
 536 0 l 1
 536 366 l 1
 540 413 600 438 647 438 c 0
 688 438 722 427 722 372 c 2
 722 0 l 1
 854 0 l 1
 854 388 l 2
 854 476 789 536 688 536 c 0
 605 536 552 509 514 471 c 1
 487 516 437 536 370 536 c 0
 283 536 230 494 215 478 c 1
 215 524 l 1
 82 524 l 1
 82 0 l 1
EndSplineSet
EndChar

StartChar: macron
Encoding: 175 175 334
Width: 249
VWidth: 0
Flags: HW
PickledData: "(dp1
S'org.robofab.postScriptHintData'
p2
(dp3
s."
LayerCount: 2
Fore
SplineSet
-23 611 m 1
 272 611 l 1
 272 688 l 1
 -23 688 l 1
 -23 611 l 1
EndSplineSet
EndChar

StartChar: minus
Encoding: 8722 8722 336
Width: 386
VWidth: 0
Flags: HW
PickledData: "(dp1
S'org.robofab.postScriptHintData'
p2
(dp3
s."
LayerCount: 2
Fore
SplineSet
60 214 m 1
 324 214 l 1
 324 302 l 1
 60 302 l 1
 60 214 l 1
EndSplineSet
EndChar

StartChar: uni03BC
Encoding: 956 956 337
Width: 608
VWidth: 0
Flags: HW
PickledData: "(dp1
S'org.robofab.postScriptHintData'
p2
(dp3
s."
LayerCount: 2
Fore
SplineSet
398 524 m 1
 398 155 l 2
 398 106 342 81 294 81 c 0
 253 81 205 95 205 150 c 2
 205 524 l 1
 72 524 l 1
 72 -115 l 1
 195 -115 l 1
 195 1 l 1
 222 -6 248 -9 270 -9 c 0
 336 -9 379 20 398 66 c 1
 401 0 l 1
 531 0 l 1
 531 524 l 1
 398 524 l 1
EndSplineSet
EndChar

StartChar: multiply
Encoding: 215 215 338
Width: 500
VWidth: 0
Flags: HW
PickledData: "(dp1
S'org.robofab.postScriptHintData'
p2
(dp3
s."
LayerCount: 2
Fore
SplineSet
129 105 m 1
 250 224 l 1
 372 105 l 1
 425 168 l 1
 310 281 l 1
 425 394 l 1
 372 458 l 1
 250 339 l 1
 129 458 l 1
 75 394 l 1
 191 281 l 1
 75 168 l 1
 129 105 l 1
EndSplineSet
EndChar

StartChar: n
Encoding: 110 110 339
Width: 621
VWidth: 0
Flags: HW
PickledData: "(dp1
S'org.robofab.postScriptHintData'
p2
(dp3
s."
AnchorPoint: "bot" 324 0 basechar 0
LayerCount: 2
Fore
SplineSet
542 376 m 2
 542 469 486 537 377 537 c 0
 278 537 226 487 215 478 c 1
 215 524 l 1
 82 524 l 1
 82 0 l 1
 215 0 l 1
 215 359 l 2
 215 410 269 437 317 437 c 0
 359 437 409 424 409 369 c 2
 409 0 l 1
 542 0 l 1
 542 376 l 2
EndSplineSet
EndChar

StartChar: nine
Encoding: 57 57 344
Width: 673
VWidth: 0
Flags: HW
PickledData: "(dp1
S'org.robofab.postScriptHintData'
p2
(dp3
s."
LayerCount: 2
Fore
SplineSet
345 382 m 0
 251 382 221 412 221 506 c 0
 221 583 265 626 344 626 c 0
 418 626 458 583 458 507 c 0
 458 414 430 382 345 382 c 0
237 0 m 1
 394 0 l 1
 535 258 l 1
 573 331 601 407 601 500 c 0
 601 648 510 730 346 730 c 0
 176 730 82 650 82 506 c 0
 82 331 167 278 320 278 c 0
 335 278 377 283 395 288 c 1
 237 0 l 1
EndSplineSet
EndChar

StartChar: notequal
Encoding: 8800 8800 346
Width: 448
VWidth: 0
Flags: HW
PickledData: "(dp1
S'org.robofab.postScriptHintData'
p2
(dp3
s."
LayerCount: 2
Fore
SplineSet
62 73 m 1
 146 73 l 1
 360 534 l 1
 276 534 l 1
 62 73 l 1
EndSplineSet
Refer: 259 61 N 1 0 0 1 0 0 2
EndChar

StartChar: numbersign
Encoding: 35 35 348
Width: 698
VWidth: 0
Flags: HW
PickledData: "(dp1
S'org.robofab.postScriptHintData'
p2
(dp3
s."
LayerCount: 2
Fore
SplineSet
262 302 m 1
 285 438 l 1
 412 438 l 1
 387 302 l 1
 262 302 l 1
109 0 m 1
 209 0 l 1
 250 233 l 1
 375 233 l 1
 333 0 l 1
 434 0 l 1
 474 233 l 1
 607 233 l 1
 607 302 l 1
 486 302 l 1
 510 438 l 1
 619 438 l 1
 619 506 l 1
 522 506 l 1
 559 721 l 1
 462 721 l 1
 424 506 l 1
 297 506 l 1
 334 721 l 1
 238 721 l 1
 199 506 l 1
 62 506 l 1
 62 438 l 1
 188 438 l 1
 163 302 l 1
 51 302 l 1
 51 233 l 1
 151 233 l 1
 109 0 l 1
EndSplineSet
EndChar

StartChar: o
Encoding: 111 111 349
Width: 591
VWidth: 0
Flags: HW
PickledData: "(dp1
S'org.robofab.postScriptHintData'
p2
(dp3
s."
AnchorPoint: "bot" 297 0 basechar 0
AnchorPoint: "ogonek" 329 0 basechar 0
LayerCount: 2
Fore
SplineSet
296 -11 m 0
 466 -11 523 55 523 159 c 2
 523 365 l 2
 523 472 439 536 296 536 c 0
 152 536 68 472 68 365 c 2
 68 159 l 2
 68 55 130 -11 296 -11 c 0
296 81 m 0
 235 81 201 100 201 153 c 2
 201 371 l 2
 201 424 238 443 296 443 c 0
 356 443 391 424 391 371 c 2
 391 153 l 2
 391 100 353 81 296 81 c 0
EndSplineSet
EndChar

StartChar: oe
Encoding: 339 339 356
Width: 869
VWidth: 0
Flags: HW
PickledData: "(dp1
S'org.robofab.postScriptHintData'
p2
(dp3
s."
LayerCount: 2
Fore
SplineSet
509 320 m 1
 509 371 l 2
 509 427 546 443 599 443 c 0
 652 443 690 432 690 374 c 2
 690 320 l 1
 509 320 l 1
285 81 m 0
 225 81 194 100 194 153 c 2
 194 372 l 2
 194 425 229 443 285 443 c 0
 345 443 375 424 375 372 c 2
 375 153 l 2
 375 100 341 81 285 81 c 0
285 -11 m 0
 358 -11 408 11 442 44 c 1
 481 9 536 -11 597 -11 c 0
 739 -11 812 22 815 174 c 1
 691 174 l 1
 689 91 659 81 599 81 c 0
 543 81 509 99 509 157 c 2
 509 250 l 1
 815 250 l 1
 815 364 l 2
 815 469 755 536 596 536 c 0
 532 536 479 518 441 477 c 1
 403 518 349 536 285 536 c 0
 150 536 61 474 61 366 c 2
 61 159 l 2
 61 55 120 -11 285 -11 c 0
EndSplineSet
EndChar

StartChar: ogonek
Encoding: 731 731 357
Width: 237
VWidth: 0
Flags: HW
PickledData: "(dp1
S'org.robofab.postScriptHintData'
p2
(dp3
s."
AnchorPoint: "ogonek" 129 0 mark 0
LayerCount: 2
Fore
SplineSet
200 -248 m 1
 206 -179 l 1
 163 -179 120 -171 120 -120 c 0
 120 -77 141 -35 161 4 c 1
 104 4 l 1
 60 -38 30 -95 30 -144 c 0
 30 -232 116 -248 193 -248 c 2
 200 -248 l 1
EndSplineSet
EndChar

StartChar: one
Encoding: 49 49 362
Width: 673
VWidth: 0
Flags: HW
PickledData: "(dp1
S'org.robofab.postScriptHintData'
p2
(dp3
s."
LayerCount: 2
Fore
SplineSet
122 0 m 1
 602 0 l 1
 602 102 l 1
 443 102 l 1
 443 721 l 1
 343 721 l 1
 120 686 l 1
 132 580 l 1
 298 606 l 1
 298 102 l 1
 122 102 l 1
 122 0 l 1
EndSplineSet
EndChar

StartChar: onehalf
Encoding: 189 189 363
Width: 1259
VWidth: 0
Flags: HW
PickledData: "(dp1
S'org.robofab.postScriptHintData'
p2
(dp3
s."
LayerCount: 2
Fore
SplineSet
429 0 m 1
 514 0 l 1
 827 735 l 1
 742 735 l 1
 429 0 l 1
64 206 m 1
 418 206 l 1
 418 278 l 1
 298 278 l 1
 298 721 l 1
 227 721 l 1
 62 695 l 1
 71 625 l 1
 194 644 l 1
 194 278 l 1
 63 278 l 1
 64 206 l 1
841 -1 m 1
 1157 -1 l 1
 1157 78 l 1
 944 78 l 1
 1058 188 l 2
 1116 244 1163 299 1163 375 c 0
 1163 459 1121 523 989 523 c 0
 850 523 807 468 807 345 c 1
 913 345 l 1
 913 420 924 445 990 445 c 0
 1040 445 1058 421 1058 375 c 0
 1058 329 1036 297 993 253 c 2
 819 78 l 1
 841 -1 l 1
EndSplineSet
EndChar

StartChar: onequarter
Encoding: 188 188 364
Width: 1187
VWidth: 0
Flags: HW
PickledData: "(dp1
S'org.robofab.postScriptHintData'
p2
(dp3
s."
LayerCount: 2
Fore
SplineSet
415 0 m 1
 500 0 l 1
 812 735 l 1
 728 735 l 1
 415 0 l 1
64 206 m 1
 418 206 l 1
 418 278 l 1
 298 278 l 1
 298 721 l 1
 227 721 l 1
 62 695 l 1
 71 625 l 1
 194 644 l 1
 194 278 l 1
 63 278 l 1
 64 206 l 1
966 0 m 1
 1043 0 l 1
 1043 103 l 1
 1125 103 l 1
 1125 182 l 1
 1043 182 l 1
 1043 300 l 1
 966 300 l 1
 966 182 l 1
 820 182 l 1
 951 524 l 1
 858 524 l 1
 721 180 l 1
 721 103 l 1
 966 103 l 1
 966 0 l 1
EndSplineSet
EndChar

StartChar: uni00B9
Encoding: 185 185 365
Width: 550
VWidth: 0
Flags: HW
PickledData: "(dp1
S'org.robofab.postScriptHintData'
p2
(dp3
s."
LayerCount: 2
Fore
SplineSet
104 305 m 1
 459 305 l 1
 459 372 l 1
 338 372 l 1
 338 760 l 1
 272 760 l 1
 103 737 l 1
 111 667 l 1
 243 684 l 1
 243 372 l 1
 104 372 l 1
 104 305 l 1
EndSplineSet
EndChar

StartChar: ordfeminine
Encoding: 170 170 367
Width: 500
VWidth: 0
Flags: HW
PickledData: "(dp1
S'org.robofab.postScriptHintData'
p2
(dp3
sS'com.typemytype.robofont.layerData'
p4
(dp5
s."
LayerCount: 2
Fore
SplineSet
168 391 m 0
 168 415 182 438 226 451 c 0
 262 462 296 476 309 489 c 1
 309 376 l 1
 289 345 250 334 224 334 c 0
 188 334 168 354 168 391 c 0
65 383 m 0
 65 303 112 253 188 253 c 1
 188 252 l 1
 250 252 296 288 319 320 c 1
 334 284 350 259 409 259 c 2
 450 259 l 1
 459 342 l 1
 425 342 417 355 417 396 c 2
 417 569 l 2
 417 662 373 722 247 722 c 0
 131 722 79 666 79 579 c 2
 79 565 l 1
 179 565 l 1
 179 583 l 2
 179 618 191 643 245 643 c 0
 293 643 310 624 310 588 c 0
 310 531 276 530 200 506 c 0
 86 470 65 441 65 383 c 0
EndSplineSet
EndChar

StartChar: ordmasculine
Encoding: 186 186 368
Width: 500
VWidth: 0
Flags: HW
PickledData: "(dp1
S'org.robofab.postScriptHintData'
p2
(dp3
s."
LayerCount: 2
Fore
SplineSet
250 250 m 0
 387 250 434 307 434 396 c 2
 434 574 l 2
 434 666 366 720 250 720 c 0
 133 720 66 666 66 574 c 2
 66 396 l 2
 66 306 116 250 250 250 c 0
249 330 m 2
 200 330 172 346 172 392 c 2
 172 580 l 2
 172 626 202 642 249 642 c 0
 298 642 326 626 326 580 c 2
 326 392 l 2
 326 346 296 330 250 330 c 2
 249 330 l 2
EndSplineSet
EndChar

StartChar: oslash
Encoding: 248 248 369
Width: 576
VWidth: 0
Flags: HW
PickledData: "(dp1
S'org.robofab.postScriptHintData'
p2
(dp3
s."
LayerCount: 2
Fore
SplineSet
335 439 m 1
 216 106 l 1
 206 117 201 132 201 153 c 2
 201 371 l 2
 201 424 238 443 296 443 c 0
 311 443 323 442 335 439 c 1
369 424 m 1
 383 413 391 396 391 371 c 2
 391 153 l 2
 391 100 353 81 296 81 c 0
 277 81 261 83 248 87 c 1
 369 424 l 1
296 -11 m 0
 466 -11 523 55 523 159 c 2
 523 365 l 2
 523 441 480 496 404 521 c 1
 438 615 l 1
 402 625 l 1
 368 530 l 1
 346 534 322 536 296 536 c 0
 152 536 68 472 68 365 c 2
 68 159 l 2
 68 84 100 29 180 4 c 1
 144 -95 l 1
 179 -104 l 1
 215 -5 l 1
 239 -9 266 -11 296 -11 c 0
EndSplineSet
EndChar

StartChar: p
Encoding: 112 112 372
Width: 590
VWidth: 0
Flags: HW
PickledData: "(dp1
S'org.robofab.postScriptHintData'
p2
(dp3
s."
LayerCount: 2
Fore
SplineSet
304 81 m 0
 253 81 222 100 215 104 c 1
 215 411 l 1
 230 426 266 443 308 443 c 0
 364 443 397 422 397 369 c 2
 397 156 l 2
 397 103 365 81 304 81 c 0
82 -200 m 1
 215 -200 l 1
 215 8 l 1
 240 -3 273 -11 315 -11 c 0
 463 -11 530 69 530 159 c 2
 530 367 l 2
 530 468 458 536 331 536 c 0
 274 536 223 515 188 490 c 1
 175 524 l 1
 82 524 l 1
 82 -200 l 1
EndSplineSet
EndChar

StartChar: paragraph
Encoding: 182 182 373
Width: 596
VWidth: 0
Flags: HW
PickledData: "(dp1
S'org.robofab.postScriptHintData'
p2
(dp3
s."
LayerCount: 2
Fore
SplineSet
218 0 m 1
 302 0 l 1
 302 651 l 1
 415 651 l 1
 415 0 l 1
 499 0 l 1
 499 721 l 1
 226 721 l 2
 131 721 46 678 46 573 c 0
 46 470 123 419 218 419 c 1
 218 0 l 1
EndSplineSet
EndChar

StartChar: parenleft
Encoding: 40 40 374
Width: 461
VWidth: 0
Flags: HW
PickledData: "(dp1
S'org.robofab.postScriptHintData'
p2
(dp3
s."
LayerCount: 2
Fore
SplineSet
382 -78 m 1
 382 27 l 1
 280 27 238 59 238 190 c 2
 238 498 l 2
 238 630 281 664 382 664 c 1
 382 769 l 1
 380 769 l 2
 167 769 102 654 102 481 c 2
 102 205 l 2
 102 33 168 -78 380 -78 c 2
 382 -78 l 1
EndSplineSet
EndChar

StartChar: parenright
Encoding: 41 41 375
Width: 461
VWidth: 0
Flags: HW
PickledData: "(dp1
S'org.robofab.postScriptHintData'
p2
(dp3
s."
LayerCount: 2
Fore
SplineSet
88 -78 m 1
 90 -78 l 2
 303 -78 368 37 368 210 c 2
 368 486 l 2
 368 658 302 769 90 769 c 2
 88 769 l 1
 88 664 l 1
 190 664 232 632 232 500 c 2
 232 193 l 2
 232 61 189 28 88 28 c 1
 88 -78 l 1
EndSplineSet
EndChar

StartChar: partialdiff
Encoding: 8706 8706 376
Width: 593
VWidth: 0
Flags: HW
PickledData: "(dp1
S'org.robofab.postScriptHintData'
p2
(dp3
s."
LayerCount: 2
Fore
SplineSet
238 63 m 0
 221 63 207 91 207 138 c 0
 207 233 277 364 397 388 c 1
 385 259 329 63 238 63 c 0
231 -10 m 0
 423 -10 541 189 541 440 c 0
 541 636 427 730 286 730 c 0
 224 730 154 710 101 678 c 1
 121 629 l 1
 171 656 207 666 245 666 c 0
 327 666 401 606 401 468 c 2
 401 456 l 1
 176 442 54 279 54 151 c 0
 54 66 108 -10 231 -10 c 0
EndSplineSet
EndChar

StartChar: percent
Encoding: 37 37 378
Width: 1032
VWidth: 0
Flags: HW
PickledData: "(dp1
S'org.robofab.postScriptHintData'
p2
(dp3
s."
LayerCount: 2
Fore
SplineSet
339 0 m 1
 426 0 l 1
 688 706 l 1
 604 706 l 1
 339 0 l 1
788 -9 m 0
 900 -9 937 64 937 176 c 2
 937 202 l 1
 936 316 900 383 788 383 c 0
 675 383 641 316 641 202 c 2
 641 176 l 2
 641 65 676 -9 788 -9 c 0
788 54 m 0
 726 54 719 103 719 169 c 2
 719 212 l 2
 719 275 724 319 788 319 c 0
 852 319 857 275 857 211 c 2
 857 169 l 2
 857 103 850 54 788 54 c 0
242 324 m 0
 354 324 391 397 391 509 c 2
 391 536 l 1
 390 650 354 716 242 716 c 0
 129 716 96 649 96 535 c 2
 96 509 l 2
 96 398 130 324 242 324 c 0
242 388 m 0
 180 388 174 436 174 502 c 2
 174 546 l 2
 174 609 178 653 242 653 c 0
 307 653 312 609 312 545 c 2
 312 502 l 2
 312 436 304 388 242 388 c 0
EndSplineSet
EndChar

StartChar: period
Encoding: 46 46 379
Width: 309
VWidth: 0
Flags: HW
PickledData: "(dp1
S'org.robofab.postScriptHintData'
p2
(dp3
s."
LayerCount: 2
Fore
SplineSet
80 0 m 1
 226 0 l 1
 226 139 l 1
 80 139 l 1
 80 0 l 1
EndSplineSet
EndChar

StartChar: periodcentered
Encoding: 183 183 380
Width: 250
VWidth: 0
Flags: HW
PickledData: "(dp1
S'org.robofab.postScriptHintData'
p2
(dp3
s."
LayerCount: 2
Fore
SplineSet
129 381 m 1
 250 381 l 1
 250 500 l 1
 129 500 l 1
 129 381 l 1
EndSplineSet
EndChar

StartChar: perthousand
Encoding: 8240 8240 381
Width: 1352
VWidth: 0
Flags: HW
PickledData: "(dp1
S'org.robofab.postScriptHintData'
p2
(dp3
s."
LayerCount: 2
Fore
SplineSet
306 0 m 1
 393 0 l 1
 655 706 l 1
 571 706 l 1
 306 0 l 1
1123 -9 m 0
 1235 -9 1272 64 1272 176 c 2
 1272 202 l 1
 1271 316 1235 383 1123 383 c 0
 1010 383 976 316 976 202 c 2
 976 176 l 2
 976 65 1011 -9 1123 -9 c 0
1123 54 m 0
 1061 54 1054 103 1054 169 c 2
 1054 212 l 2
 1054 275 1059 319 1123 319 c 0
 1187 319 1192 275 1192 211 c 2
 1192 169 l 2
 1192 103 1185 54 1123 54 c 0
755 -9 m 0
 867 -9 904 64 904 176 c 2
 904 202 l 1
 903 316 867 383 755 383 c 0
 642 383 608 316 608 202 c 2
 608 176 l 2
 608 65 643 -9 755 -9 c 0
755 54 m 0
 693 54 686 103 686 169 c 2
 686 212 l 2
 686 275 691 319 755 319 c 0
 819 319 824 275 824 211 c 2
 824 169 l 2
 824 103 817 54 755 54 c 0
209 321 m 0
 321 321 358 394 358 506 c 2
 358 533 l 1
 357 647 321 713 209 713 c 0
 96 713 62 646 62 532 c 2
 62 506 l 2
 62 395 97 321 209 321 c 0
209 385 m 0
 147 385 141 434 141 500 c 2
 141 543 l 2
 141 606 145 650 209 650 c 0
 273 650 278 606 278 542 c 2
 278 500 l 2
 278 434 271 385 209 385 c 0
EndSplineSet
EndChar

StartChar: pi
Encoding: 960 960 382
Width: 613
VWidth: 0
Flags: HW
PickledData: "(dp1
S'org.robofab.postScriptHintData'
p2
(dp3
s."
LayerCount: 2
Fore
SplineSet
18 391 m 1
 47 412 64 430 116 435 c 1
 116 0 l 1
 239 0 l 1
 239 436 l 1
 369 436 l 1
 369 145 l 2
 369 19 425 -10 534 -10 c 2
 542 -10 l 1
 564 76 l 1
 502 88 492 89 492 167 c 2
 492 436 l 1
 581 436 l 1
 581 524 l 1
 116 524 l 2
 66 524 37 503 18 481 c 1
 18 391 l 1
EndSplineSet
EndChar

StartChar: plus
Encoding: 43 43 383
Width: 471
VWidth: 0
Flags: HW
PickledData: "(dp1
S'org.robofab.postScriptHintData'
p2
(dp3
s."
LayerCount: 2
Fore
SplineSet
196 76 m 1
 276 76 l 1
 276 238 l 1
 407 238 l 1
 407 317 l 1
 276 317 l 1
 276 473 l 1
 196 473 l 1
 196 317 l 1
 64 317 l 1
 64 238 l 1
 196 238 l 1
 196 76 l 1
EndSplineSet
EndChar

StartChar: plusminus
Encoding: 177 177 384
Width: 500
VWidth: 0
Flags: HW
PickledData: "(dp1
S'org.robofab.postScriptHintData'
p2
(dp3
s."
LayerCount: 2
Fore
SplineSet
83 0 m 1
 417 0 l 1
 417 81 l 1
 83 81 l 1
 83 0 l 1
209 159 m 1
 291 159 l 1
 291 289 l 1
 417 289 l 1
 417 369 l 1
 291 369 l 1
 291 497 l 1
 209 497 l 1
 209 369 l 1
 83 369 l 1
 83 289 l 1
 209 289 l 1
 209 159 l 1
EndSplineSet
EndChar

StartChar: product
Encoding: 8719 8719 385
Width: 867
VWidth: 0
Flags: HW
PickledData: "(dp1
S'org.robofab.postScriptHintData'
p2
(dp3
s."
LayerCount: 2
Fore
SplineSet
434 -7 m 0
 637 -7 793 148 793 353 c 0
 793 557 637 711 434 711 c 0
 232 711 74 557 74 353 c 0
 74 148 232 -7 434 -7 c 0
435 40 m 0
 257 40 127 175 127 353 c 0
 127 531 257 665 435 665 c 0
 614 665 741 531 741 353 c 0
 741 175 614 40 435 40 c 0
382 362 m 1
 382 519 l 1
 478 519 l 2
 536 519 540 469 540 440 c 2
 540 428 l 2
 540 397 529 362 473 362 c 2
 382 362 l 1
318 156 m 1
 382 156 l 1
 382 318 l 1
 469 318 l 2
 576 318 604 372 604 437 c 2
 604 443 l 1
 602 528 553 563 476 563 c 2
 318 563 l 1
 318 156 l 1
EndSplineSet
EndChar

StartChar: q
Encoding: 113 113 386
Width: 590
VWidth: 0
Flags: HW
PickledData: "(dp1
S'org.robofab.postScriptHintData'
p2
(dp3
s."
LayerCount: 2
Fore
SplineSet
287 81 m 0
 228 81 193 97 193 150 c 2
 193 369 l 2
 193 422 230 443 287 443 c 0
 334 443 364 429 376 410 c 1
 376 107 l 1
 375 104 343 81 287 81 c 0
376 -200 m 1
 509 -200 l 1
 509 524 l 1
 410 524 l 1
 400 491 l 1
 370 516 320 536 265 536 c 0
 138 536 61 469 61 366 c 2
 61 155 l 2
 61 67 115 -11 262 -11 c 0
 302 -11 344 -2 376 16 c 1
 376 -200 l 1
EndSplineSet
EndChar

StartChar: question
Encoding: 63 63 387
Width: 607
VWidth: 0
Flags: HW
PickledData: "(dp1
S'org.robofab.postScriptHintData'
p2
(dp3
s."
LayerCount: 2
Fore
SplineSet
209 0 m 1
 331 0 l 1
 331 120 l 1
 209 120 l 1
 209 0 l 1
217 210 m 1
 329 210 l 1
 418 284 l 2
 507 358 546 421 546 521 c 0
 546 629 511 733 302 733 c 0
 91 733 63 639 63 506 c 2
 63 470 l 1
 197 470 l 1
 197 511 l 2
 197 580 203 625 302 625 c 0
 393 625 403 570 403 516 c 0
 403 457 385 420 338 361 c 2
 217 210 l 1
EndSplineSet
EndChar

StartChar: quotedbl
Encoding: 34 34 389
Width: 500
VWidth: 0
Flags: HW
PickledData: "(dp1
S'org.robofab.postScriptHintData'
p2
(dp3
s."
LayerCount: 2
Fore
SplineSet
308 426 m 1
 366 426 l 1
 403 740 l 1
 279 740 l 1
 308 426 l 1
135 426 m 1
 193 426 l 1
 220 740 l 1
 97 740 l 1
 135 426 l 1
EndSplineSet
EndChar

StartChar: quotedblbase
Encoding: 8222 8222 390
Width: 670
VWidth: 0
Flags: HW
PickledData: "(dp1
S'org.robofab.postScriptHintData'
p2
(dp3
s."
LayerCount: 2
Fore
SplineSet
206 -190 m 1
 236 -163 302 -72 302 26 c 2
 302 135 l 1
 145 135 l 1
 145 0 l 1
 225 0 l 1
 225 -67 179 -139 154 -167 c 1
 206 -190 l 1
450 -190 m 1
 480 -163 545 -72 545 26 c 2
 545 135 l 1
 388 135 l 1
 388 0 l 1
 469 0 l 1
 469 -67 422 -139 397 -167 c 1
 450 -190 l 1
EndSplineSet
EndChar

StartChar: quotedblleft
Encoding: 8220 8220 391
Width: 639
VWidth: 0
Flags: HW
PickledData: "(dp1
S'org.robofab.postScriptHintData'
p2
(dp3
s."
LayerCount: 2
Fore
SplineSet
453 740 m 1
 423 713 357 622 357 524 c 2
 357 415 l 1
 515 415 l 1
 515 550 l 1
 434 550 l 1
 434 617 480 689 505 717 c 1
 453 740 l 1
221 740 m 1
 191 713 125 622 125 524 c 2
 125 415 l 1
 282 415 l 1
 282 550 l 1
 202 550 l 1
 202 617 248 689 273 717 c 1
 221 740 l 1
EndSplineSet
EndChar

StartChar: quotedblright
Encoding: 8221 8221 392
Width: 659
VWidth: 0
Flags: HW
PickledData: "(dp1
S'org.robofab.postScriptHintData'
p2
(dp3
s."
LayerCount: 2
Fore
SplineSet
438 416 m 1
 468 443 534 533 534 631 c 2
 534 740 l 1
 377 740 l 1
 377 605 l 1
 458 605 l 1
 458 538 411 466 386 438 c 1
 438 416 l 1
206 416 m 1
 236 443 302 533 302 631 c 2
 302 740 l 1
 145 740 l 1
 145 605 l 1
 225 605 l 1
 225 538 179 466 154 438 c 1
 206 416 l 1
EndSplineSet
EndChar

StartChar: quoteleft
Encoding: 8216 8216 393
Width: 426
VWidth: 0
Flags: HW
PickledData: "(dp1
S'org.robofab.postScriptHintData'
p2
(dp3
s."
LayerCount: 2
Fore
SplineSet
240 734 m 1
 210 707 145 616 145 518 c 2
 145 409 l 1
 302 409 l 1
 302 544 l 1
 221 544 l 1
 221 611 267 683 292 711 c 1
 240 734 l 1
EndSplineSet
EndChar

StartChar: quoteright
Encoding: 8217 8217 394
Width: 407
VWidth: 0
Flags: HW
PickledData: "(dp1
S'org.robofab.postScriptHintData'
p2
(dp3
s."
LayerCount: 2
Fore
SplineSet
187 410 m 1
 217 437 282 527 282 625 c 2
 282 734 l 1
 125 734 l 1
 125 600 l 1
 206 600 l 1
 206 533 159 460 134 432 c 1
 187 410 l 1
EndSplineSet
EndChar

StartChar: quotesinglbase
Encoding: 8218 8218 395
Width: 426
VWidth: 0
Flags: HW
PickledData: "(dp1
S'org.robofab.postScriptHintData'
p2
(dp3
s."
LayerCount: 2
Fore
SplineSet
206 -190 m 1
 236 -163 302 -72 302 26 c 2
 302 135 l 1
 145 135 l 1
 145 0 l 1
 225 0 l 1
 225 -67 179 -139 154 -167 c 1
 206 -190 l 1
EndSplineSet
EndChar

StartChar: quotesingle
Encoding: 39 39 396
Width: 375
VWidth: 0
Flags: HW
PickledData: "(dp1
S'org.robofab.postScriptHintData'
p2
(dp3
s."
LayerCount: 2
Fore
SplineSet
165 426 m 1
 223 426 l 1
 250 740 l 1
 126 740 l 1
 165 426 l 1
EndSplineSet
EndChar

StartChar: r
Encoding: 114 114 397
Width: 417
VWidth: 0
Flags: HW
PickledData: "(dp1
S'org.robofab.postScriptHintData'
p2
(dp3
s."
AnchorPoint: "bot" 147 0 basechar 0
LayerCount: 2
Fore
SplineSet
78 0 m 1
 211 0 l 1
 211 352 l 1
 221 394 326 416 393 419 c 1
 396 532 l 1
 393 532 388 533 384 533 c 0
 334 533 234 506 211 462 c 1
 211 524 l 1
 78 524 l 1
 78 0 l 1
EndSplineSet
EndChar

StartChar: radical
Encoding: 8730 8730 399
Width: 633
VWidth: 0
Flags: HW
PickledData: "(dp1
S'org.robofab.postScriptHintData'
p2
(dp3
s."
LayerCount: 2
Fore
SplineSet
-1 250 m 1
 57 250 l 1
 208 0 l 1
 329 0 l 1
 619 735 l 1
 523 735 l 1
 271 112 l 1
 166 304 l 1
 -1 304 l 1
 -1 250 l 1
EndSplineSet
EndChar

StartChar: registered
Encoding: 174 174 403
Width: 867
VWidth: 0
Flags: HW
PickledData: "(dp1
S'org.robofab.postScriptHintData'
p2
(dp3
s."
LayerCount: 2
Fore
SplineSet
434 -7 m 0
 637 -7 793 148 793 353 c 0
 793 557 637 711 434 711 c 0
 232 711 74 557 74 353 c 0
 74 148 232 -7 434 -7 c 0
435 40 m 0
 257 40 127 175 127 353 c 0
 127 531 257 665 435 665 c 0
 614 665 741 531 741 353 c 0
 741 175 614 40 435 40 c 0
353 362 m 1
 353 519 l 1
 488 519 l 2
 546 519 550 469 550 440 c 2
 550 428 l 2
 550 397 539 362 483 362 c 2
 353 362 l 1
289 156 m 1
 353 156 l 1
 353 318 l 1
 479 318 l 1
 567 156 l 1
 630 156 l 1
 540 325 l 1
 585 337 614 372 614 437 c 2
 614 443 l 1
 612 528 563 563 486 563 c 2
 289 563 l 1
 289 156 l 1
EndSplineSet
EndChar

StartChar: ring
Encoding: 730 730 404
Width: 289
VWidth: 0
Flags: HW
PickledData: "(dp1
S'org.robofab.postScriptHintData'
p2
(dp3
s."
LayerCount: 2
Fore
SplineSet
145 577 m 0
 215 577 257 615 257 681 c 0
 257 747 214 784 145 784 c 0
 75 784 32 747 32 681 c 0
 32 615 75 577 145 577 c 0
145 621 m 0
 112 621 87 634 87 681 c 0
 87 728 111 741 144 741 c 0
 177 741 202 727 202 680 c 0
 202 633 178 621 145 621 c 0
EndSplineSet
EndChar

StartChar: s
Encoding: 115 115 406
Width: 511
VWidth: 0
Flags: HW
PickledData: "(dp1
S'org.robofab.postScriptHintData'
p2
(dp3
sS'com.typemytype.robofont.layerData'
p4
(dp5
s."
AnchorPoint: "bot" 261 0 basechar 0
LayerCount: 2
Fore
SplineSet
260 534 m 0
 156 534 69 493 69 383 c 0
 69 315 97 264 178 239 c 2
 293 203 l 2
 327 192 337 173 337 150 c 0
 337 123 328 81 266 81 c 0
 214 81 149 96 93 120 c 1
 66 30 l 1
 132 6 204 -10 266 -10 c 0
 374 -10 459 35 459 148 c 0
 459 230 429 278 341 306 c 2
 232 340 l 2
 208 347 196 364 196 387 c 0
 196 421 209 443 270 443 c 0
 320 443 385 425 416 409 c 1
 447 491 l 1
 394 517 325 534 260 534 c 0
EndSplineSet
EndChar

StartChar: section
Encoding: 167 167 414
Width: 529
VWidth: 0
Flags: HW
PickledData: "(dp1
S'org.robofab.postScriptHintData'
p2
(dp3
s."
LayerCount: 2
Fore
SplineSet
360 283 m 1
 197 358 l 2
 166 372 155 388 155 414 c 0
 155 432 168 453 176 459 c 1
 323 389 l 1
 367 370 371 344 371 318 c 0
 371 306 367 294 360 283 c 1
61 55 m 1
 109 16 182 -11 271 -11 c 0
 396 -11 459 60 459 148 c 0
 459 196 445 224 418 247 c 1
 451 278 470 314 470 350 c 0
 470 398 437 445 365 479 c 2
 238 539 l 2
 213 551 197 562 197 589 c 0
 197 622 227 639 269 639 c 0
 309 639 359 625 410 595 c 1
 451 672 l 1
 417 698 348 731 258 731 c 0
 146 731 73 685 73 582 c 0
 73 539 88 512 118 488 c 1
 85 464 65 426 65 387 c 0
 65 342 92 295 159 262 c 2
 287 201 l 2
 325 182 336 166 336 140 c 0
 336 108 305 86 256 86 c 0
 215 86 162 101 106 137 c 1
 61 55 l 1
EndSplineSet
EndChar

StartChar: seven
Encoding: 55 55 416
Width: 673
VWidth: 0
Flags: HW
PickledData: "(dp1
S'org.robofab.postScriptHintData'
p2
(dp3
s."
LayerCount: 2
Fore
SplineSet
173 0 m 1
 326 0 l 1
 597 620 l 1
 597 721 l 1
 109 721 l 1
 109 607 l 1
 438 607 l 1
 173 0 l 1
EndSplineSet
EndChar

StartChar: six
Encoding: 54 54 417
Width: 673
VWidth: 0
Flags: HW
PickledData: "(dp1
S'org.robofab.postScriptHintData'
p2
(dp3
s."
LayerCount: 2
Fore
SplineSet
354 97 m 0
 278 97 230 146 230 224 c 0
 230 307 267 354 352 354 c 0
 446 354 478 305 478 225 c 0
 478 147 430 97 354 97 c 0
347 -10 m 0
 509 -10 611 77 611 218 c 0
 611 393 528 454 375 454 c 0
 360 454 316 446 298 441 c 1
 456 721 l 1
 299 721 l 1
 158 471 l 1
 120 398 92 317 92 224 c 0
 92 79 190 -10 347 -10 c 0
EndSplineSet
EndChar

StartChar: slash
Encoding: 47 47 418
Width: 500
VWidth: 0
Flags: HW
PickledData: "(dp1
S'org.robofab.postScriptHintData'
p2
(dp3
s."
LayerCount: 2
Fore
SplineSet
52 0 m 1
 170 0 l 1
 448 740 l 1
 330 740 l 1
 52 0 l 1
EndSplineSet
EndChar

StartChar: uni00AD
Encoding: 173 173 419
Width: 472
VWidth: 0
Flags: HW
LayerCount: 2
Fore
SplineSet
64 241 m 1
 408 241 l 1
 408 313 l 1
 64 313 l 1
 64 241 l 1
EndSplineSet
EndChar

StartChar: sterling
Encoding: 163 163 421
Width: 627
VWidth: 0
Flags: HW
PickledData: "(dp1
S'org.robofab.postScriptHintData'
p2
(dp3
s."
LayerCount: 2
Fore
SplineSet
101 0 m 1
 549 0 l 1
 549 110 l 1
 252 110 l 1
 269 303 l 1
 509 303 l 1
 509 396 l 1
 277 396 l 1
 286 510 l 2
 291 576 312 625 388 625 c 0
 423 625 465 616 517 593 c 1
 552 691 l 1
 514 716 446 740 376 740 c 0
 214 740 150 656 142 518 c 1
 132 396 l 1
 65 396 l 1
 65 303 l 1
 125 303 l 1
 101 0 l 1
EndSplineSet
EndChar

StartChar: summation
Encoding: 8721 8721 422
Width: 583
VWidth: 0
Flags: HW
PickledData: "(dp1
S'org.robofab.postScriptHintData'
p2
(dp3
s."
LayerCount: 2
Fore
SplineSet
529 0 m 1
 529 113 l 1
 223 113 l 1
 441 351 l 1
 441 399 l 1
 229 608 l 1
 529 608 l 1
 529 721 l 1
 63 721 l 1
 63 607 l 1
 291 372 l 1
 63 115 l 1
 63 0 l 1
 529 0 l 1
EndSplineSet
EndChar

StartChar: t
Encoding: 116 116 423
Width: 419
VWidth: 0
Flags: HW
PickledData: "(dp1
S'org.robofab.postScriptHintData'
p2
(dp3
s."
AnchorPoint: "bot" 230 12 basechar 0
AnchorPoint: "caron.alt" 196 524 basechar 0
LayerCount: 2
Fore
SplineSet
316 -6 m 2
 363 -6 l 1
 368 93 l 1
 338 93 l 2
 250 93 240 111 240 176 c 2
 240 440 l 1
 365 440 l 1
 365 524 l 1
 240 524 l 1
 240 693 l 1
 124 693 l 1
 111 524 l 1
 24 524 l 1
 24 440 l 1
 107 440 l 1
 107 167 l 2
 107 32 158 -6 316 -6 c 2
EndSplineSet
EndChar

StartChar: tbar
Encoding: 359 359 424
Width: 419
VWidth: 0
Flags: HW
PickledData: "(dp1
S'org.robofab.postScriptHintData'
p2
(dp3
s."
LayerCount: 2
Fore
SplineSet
316 -6 m 2
 363 -6 l 1
 368 93 l 1
 338 93 l 2
 250 93 240 111 240 176 c 2
 240 265 l 1
 331 265 l 1
 331 342 l 1
 240 342 l 1
 240 440 l 1
 365 440 l 1
 365 524 l 1
 240 524 l 1
 240 693 l 1
 124 693 l 1
 111 524 l 1
 24 524 l 1
 24 440 l 1
 107 440 l 1
 107 342 l 1
 36 342 l 1
 36 265 l 1
 107 265 l 1
 107 167 l 2
 107 32 158 -6 316 -6 c 2
EndSplineSet
EndChar

StartChar: thorn
Encoding: 254 254 428
Width: 591
VWidth: 0
Flags: HW
PickledData: "(dp1
S'org.robofab.postScriptHintData'
p2
(dp3
s."
LayerCount: 2
Fore
SplineSet
300 81 m 0
 249 81 217 100 210 104 c 1
 210 411 l 1
 226 426 261 442 304 442 c 0
 359 442 394 421 394 369 c 2
 394 156 l 2
 394 103 360 81 300 81 c 0
77 -200 m 1
 210 -200 l 1
 210 8 l 1
 236 -3 269 -12 311 -12 c 0
 459 -12 527 69 527 159 c 2
 527 367 l 2
 527 468 453 535 326 535 c 0
 282 535 241 523 210 506 c 1
 210 740 l 1
 77 740 l 1
 77 -200 l 1
EndSplineSet
EndChar

StartChar: three
Encoding: 51 51 429
Width: 673
VWidth: 0
Flags: HW
PickledData: "(dp1
S'org.robofab.postScriptHintData'
p2
(dp3
s."
LayerCount: 2
Fore
SplineSet
344 -10 m 0
 504 -10 594 68 594 208 c 0
 594 298 553 360 479 381 c 1
 549 396 587 453 587 538 c 0
 587 662 501 730 345 730 c 0
 194 730 109 650 108 504 c 1
 244 504 l 1
 244 579 280 621 347 621 c 0
 411 621 447 589 447 531 c 0
 447 465 418 428 311 428 c 1
 311 331 l 1
 420 331 451 289 451 214 c 0
 451 134 413 98 346 98 c 0
 275 98 242 139 241 213 c 1
 105 213 l 1
 108 70 189 -10 344 -10 c 0
EndSplineSet
EndChar

StartChar: threequarters
Encoding: 190 190 430
Width: 1407
VWidth: 0
Flags: HW
PickledData: "(dp1
S'org.robofab.postScriptHintData'
p2
(dp3
s."
LayerCount: 2
Fore
SplineSet
434 0 m 1
 519 0 l 1
 832 735 l 1
 747 735 l 1
 434 0 l 1
985 0 m 1
 1063 0 l 1
 1063 103 l 1
 1145 103 l 1
 1145 182 l 1
 1063 182 l 1
 1063 300 l 1
 985 300 l 1
 985 182 l 1
 839 182 l 1
 971 524 l 1
 877 524 l 1
 741 180 l 1
 741 103 l 1
 985 103 l 1
 985 0 l 1
299 213 m 0
 434 213 472 284 472 363 c 0
 472 421 454 466 392 483 c 1
 458 497 468 547 468 595 c 0
 468 679 412 730 302 730 c 0
 190 730 122 694 122 564 c 1
 212 564 l 1
 212 567 l 2
 212 640 229 656 298 656 c 0
 359 656 377 633 377 590 c 0
 377 540 374 517 274 517 c 1
 274 448 l 1
 364 448 380 427 380 368 c 0
 380 318 368 289 306 289 c 0
 239 289 211 298 210 377 c 1
 120 377 l 1
 122 262 168 213 299 213 c 0
EndSplineSet
EndChar

StartChar: uni00B3
Encoding: 179 179 431
Width: 452
VWidth: 0
Flags: HW
PickledData: "(dp1
S'org.robofab.postScriptHintData'
p2
(dp3
s."
LayerCount: 2
Fore
SplineSet
68 448 m 1
 69 345 130 297 230 297 c 0
 329 297 393 337 393 427 c 0
 393 487 369 524 311 539 c 1
 364 549 387 593 387 644 c 0
 387 738 319 772 228 772 c 0
 126 772 71 725 71 623 c 1
 163 623 l 1
 163 677 178 699 228 699 c 0
 280 699 292 673 292 640 c 0
 292 592 274 573 189 573 c 1
 189 505 l 1
 274 505 295 485 295 429 c 0
 295 389 275 371 228 371 c 0
 179 371 162 394 161 448 c 1
 68 448 l 1
EndSplineSet
EndChar

StartChar: tilde
Encoding: 732 732 432
Width: 370
VWidth: 0
Flags: HW
PickledData: "(dp1
S'org.robofab.postScriptHintData'
p2
(dp3
s."
LayerCount: 2
Fore
SplineSet
131 601 m 0
 206 601 226 651 252 651 c 0
 268 651 279 639 279 609 c 1
 337 609 l 1
 337 700 298 736 239 736 c 0
 164 736 146 686 122 686 c 0
 105 686 91 697 91 728 c 1
 34 728 l 1
 34 637 72 601 131 601 c 0
EndSplineSet
EndChar

StartChar: trademark
Encoding: 8482 8482 433
Width: 899
VWidth: 0
Flags: HW
PickledData: "(dp1
S'org.robofab.postScriptHintData'
p2
(dp3
s."
LayerCount: 2
Fore
SplineSet
154 374 m 1
 249 374 l 1
 249 636 l 1
 338 636 l 1
 338 706 l 1
 65 706 l 1
 65 636 l 1
 154 636 l 1
 154 374 l 1
403 374 m 1
 483 374 l 1
 483 605 l 1
 561 455 l 1
 640 455 l 1
 714 605 l 1
 714 374 l 1
 795 374 l 1
 795 706 l 1
 690 706 l 1
 599 539 l 1
 509 706 l 1
 403 706 l 1
 403 374 l 1
EndSplineSet
EndChar

StartChar: two
Encoding: 50 50 434
Width: 673
VWidth: 0
Flags: HW
PickledData: "(dp1
S'org.robofab.postScriptHintData'
p2
(dp3
s."
LayerCount: 2
Fore
SplineSet
135 0 m 1
 569 0 l 1
 569 115 l 1
 295 115 l 1
 445 257 l 2
 535 342 576 412 576 518 c 0
 576 642 506 730 346 730 c 0
 155 730 99 652 99 484 c 1
 245 484 l 1
 245 586 273 619 350 619 c 0
 402 619 436 584 436 517 c 0
 436 463 421 422 360 360 c 2
 118 110 l 1
 135 0 l 1
EndSplineSet
EndChar

StartChar: uni00B2
Encoding: 178 178 435
Width: 490
VWidth: 0
Flags: HW
PickledData: "(dp1
S'org.robofab.postScriptHintData'
p2
(dp3
s."
LayerCount: 2
Fore
SplineSet
92 305 m 1
 404 305 l 1
 404 377 l 1
 195 377 l 1
 314 474 l 2
 380 528 413 568 413 632 c 0
 413 710 365 772 243 772 c 0
 115 772 65 726 65 613 c 1
 164 613 l 1
 164 682 186 701 247 701 c 0
 300 701 320 676 320 632 c 0
 320 596 306 575 256 531 c 2
 81 377 l 1
 92 305 l 1
EndSplineSet
EndChar

StartChar: u
Encoding: 117 117 436
Width: 619
VWidth: 0
Flags: HW
PickledData: "(dp1
S'org.robofab.postScriptHintData'
p2
(dp3
s."
AnchorPoint: "ogonek" 474 0 basechar 0
LayerCount: 2
Fore
SplineSet
79 142 m 2
 79 51 146 -12 253 -12 c 0
 322 -12 389 17 409 58 c 1
 413 0 l 1
 538 0 l 1
 538 524 l 1
 405 524 l 1
 405 171 l 2
 405 112 349 89 301 89 c 0
 260 89 212 109 212 164 c 2
 212 524 l 1
 79 524 l 1
 79 142 l 2
EndSplineSet
EndChar

StartChar: underscore
Encoding: 95 95 447
Width: 441
VWidth: 0
Flags: HW
PickledData: "(dp1
S'org.robofab.postScriptHintData'
p2
(dp3
s."
LayerCount: 2
Fore
SplineSet
4 -16 m 1
 435 -16 l 1
 435 70 l 1
 4 70 l 1
 4 -16 l 1
EndSplineSet
EndChar

StartChar: uni0307
Encoding: 775 775 460
Width: 292
VWidth: 0
Flags: HW
PickledData: "(dp1
S'org.robofab.postScriptHintData'
p2
(dp3
s."
LayerCount: 2
Fore
SplineSet
91 648 m 1
 185 648 l 1
 185 750 l 1
 91 750 l 1
 91 648 l 1
EndSplineSet
EndChar

StartChar: uni030F
Encoding: 783 783 461
Width: 500
VWidth: 0
Flags: HW
PickledData: "(dp1
S'org.robofab.postScriptHintData'
p2
(dp3
s."
LayerCount: 2
Fore
SplineSet
166 565 m 1
 238 565 l 1
 183 743 l 1
 52 743 l 1
 166 565 l 1
366 565 m 1
 438 565 l 1
 383 743 l 1
 252 743 l 1
 366 565 l 1
EndSplineSet
EndChar

StartChar: uni0311
Encoding: 785 785 462
Width: 280
VWidth: 0
Flags: HW
PickledData: "(dp1
S'org.robofab.postScriptHintData'
p2
(dp3
s."
LayerCount: 2
Fore
SplineSet
17 594 m 1
 87 594 l 1
 87 631 115 643 142 643 c 0
 169 643 196 631 196 594 c 1
 267 594 l 1
 267 692 204 721 142 721 c 0
 80 721 17 692 17 594 c 1
EndSplineSet
EndChar

StartChar: uni0358
Encoding: 856 856 465
Width: 292
VWidth: 0
Flags: HW
PickledData: "(dp1
S'org.robofab.postScriptHintData'
p2
(dp3
s."
LayerCount: 2
Fore
SplineSet
97 648 m 1
 191 648 l 1
 191 750 l 1
 97 750 l 1
 97 648 l 1
EndSplineSet
EndChar

StartChar: uni2015
Encoding: 8213 8213 466
Width: 2000
VWidth: 0
Flags: HW
LayerCount: 2
Fore
SplineSet
64 241 m 1
 64 313 l 1
 1936 313 l 1
 1936 241 l 1
 64 241 l 1
EndSplineSet
EndChar

StartChar: v
Encoding: 118 118 471
Width: 571
VWidth: 0
Flags: HW
PickledData: "(dp1
S'org.robofab.postScriptHintData'
p2
(dp3
s."
LayerCount: 2
Fore
SplineSet
220 0 m 1
 361 0 l 1
 539 524 l 1
 413 524 l 1
 291 130 l 1
 166 524 l 1
 33 524 l 1
 220 0 l 1
EndSplineSet
EndChar

StartChar: w
Encoding: 119 119 472
Width: 826
VWidth: 0
Flags: HW
PickledData: "(dp1
S'org.robofab.postScriptHintData'
p2
(dp3
s."
LayerCount: 2
Fore
SplineSet
178 0 m 1
 304 0 l 1
 416 362 l 1
 523 0 l 1
 653 0 l 1
 793 524 l 1
 669 524 l 1
 582 144 l 1
 469 524 l 1
 361 524 l 1
 251 148 l 1
 157 524 l 1
 33 524 l 1
 178 0 l 1
EndSplineSet
EndChar

StartChar: x
Encoding: 120 120 477
Width: 545
VWidth: 0
Flags: HW
PickledData: "(dp1
S'org.robofab.postScriptHintData'
p2
(dp3
s."
LayerCount: 2
Fore
SplineSet
26 0 m 1
 167 0 l 1
 277 165 l 1
 387 0 l 1
 520 0 l 1
 343 262 l 1
 519 524 l 1
 383 524 l 1
 274 360 l 1
 166 524 l 1
 27 524 l 1
 207 264 l 1
 26 0 l 1
EndSplineSet
EndChar

StartChar: y
Encoding: 121 121 478
Width: 546
VWidth: 0
Flags: HW
PickledData: "(dp1
S'org.robofab.postScriptHintData'
p2
(dp3
s."
LayerCount: 2
Fore
SplineSet
83 -227 m 1
 249 -212 286 -174 370 68 c 2
 529 524 l 1
 397 524 l 1
 289 172 l 1
 152 524 l 1
 24 524 l 1
 222 18 l 1
 192 -96 169 -117 73 -127 c 1
 83 -227 l 1
EndSplineSet
EndChar

StartChar: yen
Encoding: 165 165 482
Width: 636
VWidth: 0
Flags: HW
PickledData: "(dp1
S'org.robofab.postScriptHintData'
p2
(dp3
s."
LayerCount: 2
Fore
SplineSet
514 113 m 1
 514 178 l 1
 402 178 l 1
 402 260 l 1
 514 260 l 1
 514 326 l 1
 429 326 l 1
 646 721 l 1
 499 721 l 1
 331 419 l 1
 162 721 l 1
 9 721 l 1
 230 326 l 1
 136 326 l 1
 136 260 l 1
 257 260 l 1
 257 178 l 1
 136 178 l 1
 136 113 l 1
 257 113 l 1
 257 0 l 1
 402 0 l 1
 402 113 l 1
 514 113 l 1
EndSplineSet
EndChar

StartChar: z
Encoding: 122 122 486
Width: 485
VWidth: 0
Flags: HW
PickledData: "(dp1
S'org.robofab.postScriptHintData'
p2
(dp3
s."
AnchorPoint: "bot" 241 0 basechar 0
LayerCount: 2
Fore
SplineSet
59 0 m 1
 430 0 l 1
 430 93 l 1
 203 93 l 1
 425 444 l 1
 425 524 l 1
 61 524 l 1
 61 434 l 1
 279 434 l 1
 59 82 l 1
 59 0 l 1
EndSplineSet
EndChar

StartChar: zero
Encoding: 48 48 490
Width: 693
VWidth: 0
Flags: HW
PickledData: "(dp1
S'org.robofab.postScriptHintData'
p2
(dp3
s."
LayerCount: 2
Fore
SplineSet
351 -10 m 0
 542 -10 620 120 620 249 c 2
 620 469 l 2
 620 602 546 730 351 730 c 0
 152 730 73 604 73 471 c 2
 73 247 l 2
 73 117 155 -10 351 -10 c 0
351 100 m 0
 248 100 220 181 220 244 c 2
 220 475 l 2
 220 538 244 620 351 620 c 0
 457 620 479 538 479 475 c 2
 479 244 l 2
 479 181 455 100 351 100 c 0
EndSplineSet
EndChar
